<?xml version="1.0" encoding="UTF-8"?>
<svg fill="#a69e95" fill-rule="nonzero" width="20px" height="20px" viewBox="0 0 20 20" version="1.1" xmlns="http://www.w3.org/2000/svg" xmlns:xlink="http://www.w3.org/1999/xlink">
    <path d="M14.2586207,0.5 C17.1533546,0.5 19.5,2.84664545 19.5,5.74137931 L19.5,14.2586207 C19.5,17.1533546 17.1533546,19.5 14.2586207,19.5 L5.74137931,19.5 C2.84664545,19.5 0.5,17.1533546 0.5,14.2586207 L0.5,5.74137931 C0.5,2.84664545 2.84664545,0.5 5.74137931,0.5 L14.2586207,0.5 Z M14.2586207,2.13793103 L5.74137931,2.13793103 C3.79978953,2.13793103 2.21685367,3.67351104 2.14079231,5.59645049 L2.13793103,5.74137931 L2.13793103,14.2586207 C2.13793103,16.2002105 3.67351104,17.7831463 5.59645049,17.8592077 L5.74137931,17.862069 L14.2586207,17.862069 C16.2002105,17.862069 17.7831463,16.326489 17.8592077,14.4035495 L17.862069,14.2586207 L17.862069,5.74137931 C17.862069,3.79978953 16.326489,2.21685367 14.4035495,2.14079231 L14.2586207,2.13793103 Z M10,5.0862069 C12.713813,5.0862069 14.9137931,7.28618701 14.9137931,10 C14.9137931,12.713813 12.713813,14.9137931 10,14.9137931 C7.28618701,14.9137931 5.0862069,12.713813 5.0862069,10 C5.0862069,7.28618701 7.28618701,5.0862069 10,5.0862069 Z M10,6.72413793 C8.19079134,6.72413793 6.72413793,8.19079134 6.72413793,10 C6.72413793,11.8092087 8.19079134,13.2758621 10,13.2758621 C11.8092087,13.2758621 13.2758621,11.8092087 13.2758621,10 C13.2758621,8.19079134 11.8092087,6.72413793 10,6.72413793 Z M15.1431034,3.71034483 C15.7763265,3.71034483 16.2896552,4.22367352 16.2896552,4.85689655 C16.2896552,5.49011958 15.7763265,6.00344828 15.1431034,6.00344828 C14.5098804,6.00344828 13.9965517,5.49011958 13.9965517,4.85689655 C13.9965517,4.22367352 14.5098804,3.71034483 15.1431034,3.71034483 Z"></path>
</svg>
