<?xml version="1.0" encoding="UTF-8"?>
<svg fill="#a69e95" fill-rule="nonzero" width="20px" height="20px" viewBox="0 0 20 20" version="1.1" xmlns="http://www.w3.org/2000/svg" xmlns:xlink="http://www.w3.org/1999/xlink">
    <path d="M11.1414028,10.3593355 C11.1414028,13.3192518 8.75924192,15.7188518 5.82061109,15.7188518 C2.88198026,15.7188518 0.5,13.3199748 0.5,10.3593355 C0.5,7.39869622 2.88216093,5 5.82061109,5 C8.75906125,5 11.1414028,7.39941921 11.1414028,10.3593355 M16.9783746,10.3593355 C16.9783746,13.1457345 15.7872038,15.4043516 14.3179788,15.4043516 C12.8487537,15.4043516 11.6575829,13.1450115 11.6575829,10.3593355 C11.6575829,7.57365952 12.8487537,5.3143194 14.3179788,5.3143194 C15.7872038,5.3143194 16.9783746,7.57365952 16.9783746,10.3593355 M19.3657751,10.3593355 C19.3657751,12.855816 18.9467966,14.8794617 18.4300745,14.8794617 C17.9133525,14.8794617 17.494374,12.855093 17.494374,10.3593355 C17.494374,7.86357804 17.9133525,5.8392093 18.4302552,5.8392093 C18.9471579,5.8392093 19.3657751,7.8630358 19.3657751,10.3593355"></path>
</svg>
