<svg fill="#5f5953" width="92px" height="92px" viewBox="-10 -10 112 112" version="1.1" xmlns="http://www.w3.org/2000/svg" xmlns:xlink="http://www.w3.org/1999/xlink">
    <path d="M88.1,0.546679687 C89.1537056,0.546679687 90.1,0.546679687 90.8,1.24667969 C91.45625,1.90292969 91.45625,3.09815216 91.3312721,3.99536133 L90.8,16.1 C90.625,16.5375 90.45,16.975 90.1410156,17.2785156 L90,17.4 L42.9888051,68.0572662 L46.1,72.7 C46.56875,73.45 46.5101562,74.4636719 45.9242187,75.1642334 L45.8,75.3 L41,80.1 C40.2421053,80.8578947 39.0354571,80.8977839 38.2303251,80.2196676 L38.1,80.1 L28.9,70.9 L17.8,82 C18,84.5 17.2,87.1 15.3,89 C11.9,92.4 6.4,92.4 3,89 C-0.3,85.6 -0.3,80.1 3,76.8 C4.824,74.976 7.29312,74.16576 9.6995712,74.2808064 L10,74.3 L21.1,63.1 L11.9,53.9 C11.1421053,53.1421053 11.1022161,51.9354571 11.7803324,51.1303251 L11.9,51 L16.6,46.3 C17.25625,45.64375 18.2640625,45.5148437 19.0466553,45.9132812 L19.2,46 L23.7269135,49.7357216 L74.5,2 C74.85,1.65 75.2,1.3765625 75.6169922,1.24667969 L75.8,1.2 L88.1,0.546679687 Z M13.1378174,83.9881287 C15.9161383,78.1112619 5.27765656,76.6816521 4.62342453,81.9130936 C4.1506691,88.1604691 10.5024757,89.5625572 13.1378174,83.9881287 Z"/>
</svg>
