<?xml version="1.0" encoding="UTF-8"?>
<svg width="61px" height="64px" viewBox="70 88 61 64" version="1.1" xmlns="http://www.w3.org/2000/svg" xmlns:xlink="http://www.w3.org/1999/xlink">
    <path fill="#606060" d="M81.1352708,98.8483081 C81.0795424,100.631615 80.9123574,102.192009 80.9123574,103.696674 C80.9123574,106.371635 81.0238141,108.990867 81.0795424,111.665828 C81.1352708,115.120985 81.1352708,118.631871 81.0795424,122.087028 C81.0238141,123.591694 81.0795424,125.040631 81.1352708,126.545296 C81.1909991,128.049962 81.0795424,129.610355 81.0238141,131.115021 C80.9123574,133.399883 80.8009007,135.684745 80.689444,137.913879 C80.689444,138.471162 80.6337156,139.084174 80.6337156,139.641458 C80.6337156,140.143013 80.8009007,140.421654 81.3581841,140.477383 C83.1972196,140.644568 84.9805267,140.92321 86.8195621,140.533111 C87.0982038,140.477383 87.3768455,140.477383 87.7112156,140.421654 C89.7174361,140.365926 91.7793849,140.310198 93.7856054,140.198741 C94.6772589,140.143013 95.5689125,139.864371 96.460566,139.808643 C97.3522195,139.752914 98.2996014,139.808643 99.191255,139.864371 C99.5813534,139.864371 100.02718,139.920099 100.417279,139.920099 C102.590684,139.920099 104.819818,139.808643 106.993223,139.920099 C109.500999,140.031556 112.008775,140.310198 114.572279,140.533111 C115.073834,140.588839 115.575389,140.700296 116.076944,140.700296 C118.250349,140.756024 120.25657,141.369036 122.207062,142.204961 C122.485704,142.316418 122.820074,142.483603 123.042987,142.706517 C123.488814,143.096615 123.600271,143.59817 123.488814,144.155454 C123.377357,144.768465 122.875802,144.93565 122.374247,144.93565 C121.649779,144.991379 120.869582,145.047107 120.145113,144.93565 C116.634227,144.60128 113.123342,144.155454 109.612456,143.876812 C107.494779,143.709627 105.321373,143.765355 103.147968,143.765355 C102.312042,143.765355 101.476117,143.876812 100.640192,143.821084 C97.5751329,143.653898 94.5100739,144.211182 91.5007432,144.489824 C91.3335581,144.489824 91.1663731,144.545552 90.9991881,144.545552 C88.0455857,144.489824 85.0919833,144.434095 82.1941093,144.378367 C81.0238141,144.322639 79.7977904,144.211182 78.6274952,144.099725 C78.0144834,144.043997 77.4571999,143.876812 77.0671015,143.765355 C77.0671015,141.647678 77.0671015,139.752914 77.0671015,137.85815 C77.0671015,136.576399 77.1785582,135.294647 77.2342865,134.012895 C77.2900149,132.396773 77.3457432,130.78065 77.4014716,129.164528 C77.4014716,129.1088 77.4014716,129.1088 77.4014716,129.053072 C77.2342865,125.263544 77.0671015,121.306832 77.0113731,117.405847 C76.9556448,114.786615 77.1228298,112.167383 77.1228298,109.603879 C77.1228298,108.266399 77.0113731,106.984647 77.0113731,105.647166 C77.0113731,104.253958 77.1228298,102.916477 77.1785582,101.523269 C77.2342865,100.241517 77.2342865,98.9597647 77.2342865,97.6780128 C77.2342865,96.6191742 77.4014716,96.4519892 78.4603101,96.5077175 C79.1290503,96.5634459 79.7420621,96.6749025 80.4108023,96.7306309 C82.305566,96.8978159 84.0888731,96.1733474 85.8721802,95.783249 C87.8784007,95.2816939 89.8846211,95.0030522 92.0022983,95.0030522 C96.8506644,94.9473238 101.587574,95.6717923 106.380212,95.783249 C108.219247,95.8389774 110.002554,95.783249 111.84159,95.8389774 C113.84781,95.8947057 115.798302,96.1176191 117.804523,96.1733474 C118.473263,96.2290758 119.142003,96.1733474 119.810743,96.1176191 C120.869582,96.0618907 121.816964,96.0061624 122.875802,96.3962608 C123.544542,96.6191742 123.711727,96.8978159 123.655999,97.5665561 C123.655999,97.9566545 123.767456,98.4024813 123.823184,98.7925797 C123.878912,99.2941348 123.878912,99.7956899 123.823184,100.241517 C123.711727,101.300355 123.544542,102.359194 123.433086,103.418032 C123.210172,106.761733 123.433086,110.105434 123.544542,113.449135 C123.600271,116.792836 123.544542,120.136536 123.600271,123.535965 C123.600271,125.709371 123.711727,127.827048 123.711727,130.000454 C123.711727,131.003564 123.433086,131.950946 123.265901,132.954056 C123.210172,133.121241 123.098716,133.344154 122.93153,133.399883 C122.039877,133.789981 121.036767,134.235808 120.200842,133.84571 C118.473263,133.121241 116.689956,133.232698 114.962377,133.288426 C112.343145,133.344154 109.668184,133.678524 107.048952,133.734253 C105.377101,133.789981 103.649523,133.567068 101.977672,133.567068 C99.6928101,133.567068 97.4079479,133.734253 95.1230857,133.734253 C93.8970621,133.734253 92.6710384,133.678524 91.3892865,133.622796 C90.664818,133.567068 90.2747196,133.121241 90.1075345,132.396773 C90.0518062,132.062402 89.8846211,131.783761 89.8288928,131.449391 C89.7731644,131.115021 89.6059794,130.669194 89.6617077,130.390552 C90.0518062,129.220257 89.7731644,127.994233 89.7731644,126.823938 C89.7731644,125.152088 89.8288928,123.424509 89.8288928,121.752658 C89.8846211,119.746438 90.0518062,117.795946 90.0518062,115.789725 C90.0518062,113.672048 90.0518062,111.554371 89.8846211,109.492422 C89.7174361,107.932029 90.6090896,106.928918 91.2221014,105.758623 C91.3335581,105.591438 91.6121999,105.479981 91.8351132,105.479981 C93.7856054,105.479981 95.7360975,105.53571 97.6308613,105.591438 C100.36155,105.647166 103.092239,105.702895 105.822928,105.814351 C107.494779,105.87008 109.110901,106.148721 110.782751,106.260178 C112.17596,106.371635 112.733243,107.374745 112.956156,108.377855 C113.401983,110.105434 113.680625,111.833013 113.011885,113.61632 C112.677515,114.61943 112.51033,115.678269 112.231688,116.737107 C112.17596,116.960021 112.17596,117.238662 112.231688,117.461576 C112.677515,119.189154 112.120231,120.916733 112.17596,122.644312 C112.17596,124.148977 111.730133,124.539076 110.225468,124.594804 C107.717692,124.706261 105.154188,124.817717 102.646412,124.873446 C101.921944,124.873446 101.141747,124.706261 100.417279,124.594804 C99.9714518,124.483347 99.6928101,124.148977 99.4698967,123.703151 C98.9683416,122.644312 98.8568849,121.529745 98.8568849,120.415178 C98.8568849,119.021969 98.9126132,117.573032 99.0797983,116.179824 C99.191255,115.120985 100.528735,114.117875 101.531846,114.452245 C102.423499,114.730887 103.259424,114.563702 104.039621,114.28506 C104.206806,114.229332 104.373991,114.173603 104.541176,114.173603 C105.377101,114.062147 105.878657,114.563702 105.544286,115.343899 C105.154188,116.29128 104.819818,116.960021 103.538066,116.848564 C102.980783,116.792836 102.423499,116.904292 101.866216,116.960021 C101.197475,118.464686 102.144857,119.746438 102.033401,121.02819 C104.42972,121.306832 106.77031,121.585473 109.278086,121.919843 C109.278086,121.195375 109.333814,120.526635 109.278086,119.857895 C109.055172,117.740217 109.222357,115.678269 109.612456,113.560591 C109.835369,112.390296 109.668184,111.164273 109.668184,109.826792 C109.166629,109.826792 108.609345,109.771064 108.10779,109.771064 C106.77031,109.771064 105.488558,109.771064 104.151078,109.715336 C101.308932,109.548151 98.4667865,109.380966 95.5689125,109.158052 C95.0673573,109.102324 94.5658022,109.046595 94.0642471,109.046595 C93.3397786,109.046595 93.2283219,109.21378 93.2283219,109.938249 C93.2283219,111.610099 93.2840503,113.337678 93.2283219,115.009528 C93.1725936,116.737107 93.0054085,118.464686 92.8382235,120.192265 C92.6710384,122.087028 92.6710384,123.926064 93.2283219,125.820828 C93.562692,126.935395 93.6184203,128.161418 93.8413337,129.554627 C94.6215306,129.554627 95.4017274,129.554627 96.2376526,129.554627 C98.8568849,129.554627 101.476117,129.498899 104.039621,129.44317 C105.042731,129.44317 106.045842,129.44317 107.048952,129.44317 C108.943716,129.44317 110.838479,129.387442 112.788971,129.387442 C113.401983,129.387442 114.014995,129.554627 114.628007,129.610355 C115.854031,129.833269 117.080054,130.056182 118.306078,130.279095 C119.197731,130.44628 119.420645,130.279095 119.476373,129.387442 C119.532101,128.662973 119.532101,127.994233 119.532101,127.269765 C119.476373,123.591694 119.476373,119.913623 119.420645,116.179824 C119.364916,113.672048 119.197731,111.220001 119.197731,108.712225 C119.197731,106.761733 119.420645,104.866969 119.643558,102.916477 C119.755015,101.969095 119.9222,100.965985 120.033656,99.962875 C118.640448,99.8514183 117.414424,99.7399616 116.188401,99.6842332 C113.903538,99.5727766 111.618676,99.3498632 109.333814,99.4055915 C105.09846,99.5727766 100.918834,99.0154931 96.6834794,98.681123 C93.729877,98.4582096 90.7205463,98.6253947 87.7112156,98.6253947 C85.5935385,98.681123 83.4758613,98.7925797 81.1352708,98.8483081 Z"></path>
</svg>
