<?xml version="1.0" encoding="UTF-8"?>
<svg width="84px" height="50px" viewBox="58 95 84 46" version="1.1" xmlns="http://www.w3.org/2000/svg" xmlns:xlink="http://www.w3.org/1999/xlink">
    <path fill="#5f5953" fill-rule="nonzero" d="M102.269191,95.033501 C105.411674,95.3076495 108.463881,96.2267841 111.235191,97.733501 C114.687191,99.546501 117.020191,101.703501 118.167191,104.146501 C118.481794,104.815608 118.719927,105.489339 118.881429,106.169265 C124.29424,105.508544 134.452499,105.381905 139.489191,112.528501 C141.763262,116.006283 142.475634,120.277974 141.453191,124.305501 C140.602073,128.562837 138.028882,132.278944 134.343191,134.573501 C132.501563,135.590766 130.424733,136.105663 128.321191,136.066501 C127.421434,136.04333 126.52563,135.965643 125.638598,135.834469 C123.650575,137.495992 120.756286,139.339079 117.451191,139.652501 C117.153191,139.681501 116.853191,139.694501 116.547191,139.694501 C114.122482,139.534469 111.743909,138.971063 109.508826,138.029733 C108.227987,139.227161 106.679305,140.08165 104.870191,140.585501 C104.040316,140.817052 103.182764,140.934501 102.321191,140.934501 C99.4096173,140.934501 96.783813,139.600617 94.4973715,138.129221 C91.658391,139.656741 89.0601548,140.407501 86.6311911,140.407501 C86.3685244,140.407501 86.1075244,140.398834 85.8481911,140.381501 C81.7288295,140.101824 77.9738409,137.343651 75.6791477,135.242631 C74.045983,136.320806 72.2122372,137.122501 70.0531911,137.122501 L69.9411911,137.122501 C66.4636704,137.076363 63.1418136,135.673267 60.6841911,133.212501 C58.4354024,130.696342 57.5258652,127.256307 58.2371911,123.957501 C59.3147523,118.387267 63.5968564,115.393575 68.2881524,114.473888 L68.2411911,114.826501 C68.5055385,112.635042 69.0820455,110.492672 69.9531911,108.464501 C71.085584,106.244655 72.7148308,104.315978 74.7141911,102.828501 C76.5817003,101.289468 79.0362793,100.659338 81.4141911,101.108501 C83.1350635,101.559466 84.8073304,102.175194 86.4079728,102.946546 C87.7977221,100.891745 89.574238,99.1140888 91.6471911,97.717501 C94.8241376,95.7436388 98.5359295,94.8057317 102.269191,95.033501 Z M93.2121911,100.273501 C91.2467328,101.62034 89.6034431,103.374514 88.3896137,105.409225 C88.3703125,105.471744 88.3445276,105.533304 88.3142732,105.59379 C88.258438,105.705419 88.1905465,105.80706 88.1129611,105.897916 C87.9277563,106.227348 87.7561842,106.56574 87.5961911,106.910501 C87.2068304,107.642002 86.2981923,107.919362 85.5666911,107.530001 C84.8581828,107.152879 84.5757152,106.28861 84.912445,105.569983 C83.5993015,104.956845 82.2356856,104.451172 80.8371911,104.057501 C79.2878445,103.784134 77.6974678,104.218506 76.5021911,105.241501 C74.8751447,106.45126 73.5493807,108.020343 72.6281911,109.826501 C72.0517184,111.223175 71.6298434,112.677499 71.3693227,114.163469 C71.7333615,114.159683 72.0959902,114.167912 72.4561911,114.187501 C73.2846182,114.232236 73.9199262,114.940074 73.8751911,115.768501 C73.830456,116.596928 73.1226182,117.232236 72.2941911,117.187501 C67.5161911,116.922501 62.2331911,119.098501 61.1821911,124.531501 C60.6678324,126.869474 61.2810097,129.313296 62.8381911,131.131501 C64.7446565,133.009266 67.3006232,134.081354 69.9761911,134.125501 L70.0441911,134.125501 C71.7941959,134.125501 73.3641263,133.270607 74.853303,132.158922 L74.7601911,132.242501 C74.8359772,132.166643 74.9178637,132.100594 75.004273,132.044353 C75.4910188,131.675011 75.9695268,131.279329 76.4432116,130.879307 L76.9331911,130.463501 L76.9331911,130.463501 L77.0141911,130.395501 C77.4165021,130.009524 77.9996937,129.878523 78.5284288,130.055361 C79.0571638,130.232199 79.4441975,130.687698 79.533349,131.238047 C79.6225005,131.788397 79.3990592,132.342786 78.9531911,132.677501 L78.8721911,132.746501 C78.6224803,132.959118 78.3693017,133.174655 78.1119657,133.390224 C79.9680051,135.013818 82.9863438,137.18082 86.0511911,137.389501 C88.7931911,137.569501 91.9721911,136.422501 95.7341911,133.860501 C96.4193003,133.394649 97.3523389,133.572392 97.8181911,134.257501 C98.2840433,134.94261 98.1063003,135.875649 97.4211911,136.341501 L97.3793988,136.370322 C99.4437432,137.534416 101.733595,138.343877 104.066191,137.694501 C106.966191,136.886501 108.912191,134.894501 110.009191,131.610501 C110.271526,130.8246 111.12129,130.400166 111.907191,130.662501 C112.693092,130.924836 113.117526,131.7746 112.855191,132.560501 C112.487989,133.661069 112.035516,134.657738 111.49894,135.549253 C113.246241,136.204038 115.381187,136.839293 117.167191,136.666501 C118.837422,136.395196 120.429301,135.803321 121.859059,134.933113 C121.342972,134.760648 120.833669,134.569972 120.331191,134.360501 C119.832984,134.162933 119.478023,133.714583 119.400019,133.184339 C119.322014,132.654095 119.532816,132.122515 119.953019,131.789839 C120.373221,131.457163 120.938984,131.373933 121.437191,131.571501 C124.697191,132.863501 129.326191,133.979501 132.857191,131.971501 C135.812151,130.099556 137.864178,127.0917 138.529191,123.657501 C139.366858,120.453447 138.826232,117.045073 137.038191,114.257501 C132.861218,108.332049 123.854002,108.560103 119.098183,109.164659 C118.946692,110.945659 118.29675,112.781369 117.148191,114.697501 C116.875442,115.151899 116.383154,115.428645 115.853191,115.425527 C115.314364,115.423894 114.817798,115.133404 114.552336,114.664504 C114.286874,114.195604 114.293308,113.620346 114.569191,113.157501 C116.319191,110.238501 116.589191,107.857501 115.447191,105.423501 C114.584191,103.586501 112.696191,101.894501 109.835191,100.392501 C107.428684,99.076773 104.776882,98.2710201 102.045191,98.025501 C98.9391747,97.8427566 95.8529687,98.6281965 93.2121911,100.273501 Z"></path>
</svg>
