<?xml version="1.0" encoding="UTF-8"?>
<svg width="38px" height="50px" viewBox="87 95 28 50" version="1.1" xmlns="http://www.w3.org/2000/svg" xmlns:xlink="http://www.w3.org/1999/xlink">
    <path fill="#5f5953" fill-rule="nonzero" d="M107.908887,115.405259 C110.218938,116.814814 112.002802,118.943262 112.986863,121.464136 C113.694199,123.475126 114.085968,125.583494 114.148254,127.714345 C114.324759,131.013986 114.316668,134.320913 114.124018,137.619651 C114.039194,139.375449 113.991999,140.770904 113.957559,141.834078 C113.927583,142.726965 113.905261,143.388339 113.874648,143.836696 C113.861738,144.185016 113.660403,144.498749 113.349128,144.655597 C113.037852,144.812445 112.665904,144.787582 112.378273,144.5907 C112.090643,144.393819 111.932856,144.05608 111.966421,143.70914 C111.995758,143.275452 112.016167,142.634487 112.044867,141.772213 C112.080583,140.701387 112.127778,139.296365 112.21324,137.529087 C112.402166,134.300674 112.41047,131.064224 112.238113,127.834885 C112.189529,125.90309 111.84119,123.990562 111.205553,122.16569 C110.37593,120.036545 108.870498,118.238496 106.920333,117.047534 C104.96998,115.877545 102.677859,115.410523 100.425218,115.724148 C96.9129831,116.245211 93.6297099,118.803332 91.6443118,122.567489 C90.0581618,125.574605 89.2424457,129.163373 88.9994529,134.204996 C88.8683496,136.694378 88.8868784,139.189387 89.0549394,141.676547 C89.0900171,142.358968 89.1282837,143.117922 89.1678259,144.001242 C89.1792468,144.254712 89.0895074,144.502338 88.9183502,144.689642 C88.7471929,144.876946 88.5086385,144.988586 88.2551678,145 L88.2137123,144.996173 C87.7018444,144.9967 87.280252,144.594219 87.2570476,144.082877 C87.2175055,143.204022 87.1792389,142.447619 87.144799,141.768387 C86.9724715,139.218374 86.9539424,136.660295 87.0893124,134.108054 C87.2487565,130.796718 87.7187978,125.904335 89.9529287,121.671413 C92.2214995,117.371524 96.031576,114.439028 100.145234,113.826763 C102.837855,113.437053 105.582226,113.995035 107.908887,115.405259 Z M103.115997,95.0142708 C103.29011,95.0142708 103.464861,95.019373 103.640887,95.019373 C104.169238,95.019373 104.597551,95.4476864 104.597551,95.9760377 L104.597551,96.0072887 L104.597551,96.0072887 C105.143987,95.8763999 105.701519,95.7971796 106.262786,95.7706737 C107.998974,95.6463466 109.709593,96.2434712 110.99126,97.4212391 C112.659046,99.0558602 112.917983,101.455813 112.840812,103.180998 C112.801968,104.73166 112.425436,106.2552 111.737459,107.645433 C110.979548,109.067462 109.881914,110.280118 108.542199,111.175526 C106.383929,112.585634 103.872201,113.35265 101.299951,113.391696 L100.805333,113.391799 C99.2250735,113.463023 97.6564452,113.090308 96.2771199,112.31587 C94.4345819,111.098254 93.2622129,109.093797 93.1041821,106.890944 C92.9668397,104.838422 93.3784881,102.786344 94.2968241,100.945592 C94.9962901,99.2850102 96.0925872,97.8214558 97.489533,96.6833318 C98.396065,95.9897552 99.4357867,95.4904109 100.543844,95.2164459 C101.38851,95.0355693 102.253444,94.9675842 103.115997,95.0142708 Z M101.994,96.937 C101.660772,96.9511297 101.327599,96.9972614 101.00113,97.0749265 C100.150428,97.2846941 99.3519687,97.667208 98.6553883,98.1986886 C97.5056704,99.1505983 96.6052947,100.368393 96.0322138,101.746639 C95.2576717,103.280401 94.9035835,104.992084 95.0060315,106.707264 C95.1166945,108.310397 95.9526697,109.775467 97.2765156,110.686351 C98.379828,111.282553 99.6282923,111.557215 100.879953,111.479108 C103.212712,111.520862 105.504799,110.86506 107.462443,109.595754 C108.540684,108.879058 109.425305,107.907246 110.037785,106.766577 C110.597634,105.622409 110.902286,104.37029 110.930672,103.096812 C110.989985,101.757481 110.815872,99.9289761 109.65193,98.7879941 C108.748134,97.9805907 107.55216,97.5802414 106.344421,97.6808141 C105.018078,97.7903142 103.727753,98.1678434 102.551565,98.7905452 C102.241478,98.9582916 101.864262,98.9418962 101.569899,98.7478779 C101.275537,98.5538596 101.11174,98.2136664 101.143635,97.8625607 C101.175531,97.511455 101.397949,97.2063469 101.722455,97.0685487 L101.859258,97.0008647 L101.859258,97.0008647 L101.994,96.937 Z"></path>
</svg>
