<?xml version="1.0" encoding="UTF-8"?>
<svg fill="#706c6a" x="0px" y="0px" viewBox="0 0 100 100" enable-background="new 0 0 100 100" xmlns="http://www.w3.org/2000/svg" xmlns:xlink="http://www.w3.org/1999/xlink" version="1.1" xml:space="preserve">
    <path d="M91.841,12.411c-1.742-1.766-4.093-2.739-6.621-2.739h0c-0.277,0-19.955,1.666-19.955,1.666  c-3.963,0.379-7.929,1.596-11.511,3.523c-3.095,1.67-5.895,3.838-8.325,6.447c-2.127,2.284-3.834,4.8-5.166,7.439  c-1.283-0.629-2.612-1.153-3.982-1.555c-2.227-0.651-4.506-0.981-6.779-0.981c-0.873,0-1.751,0.05-2.609,0.148l-14.363,1.791  c-2.272,0.283-4.313,1.497-5.598,3.33s-1.733,4.165-1.226,6.397l3.194,14.075c0.725,3.052,2.1,6.005,3.984,8.581  c2.225,3.034,5.186,5.593,8.565,7.405c3.553,1.905,7.522,2.912,11.476,2.912c5.192,0,10.02-1.684,13.802-4.766  c0.173,4.707-0.029,9.531-0.709,14.431c-0.214,1.543-0.472,3.067-0.768,4.57c-0.489,2.48,1.253,4.852,3.757,5.199  c2.663,0.37,5.077-1.694,5.053-4.383c-0.059-6.804-0.876-13.357-2.337-19.52c3.51,1.637,7.406,2.502,11.447,2.502  c7.07,0,14.04-2.597,19.625-7.313c3.744-3.161,6.766-7.144,8.738-11.519c1.67-3.714,2.602-7.756,2.697-11.695l0.269-19.229  C94.535,16.571,93.591,14.185,91.841,12.411z M32.924,66.807c-3.204,0-6.504-0.79-9.566-2.432c-2.973-1.593-5.402-3.76-7.212-6.229  c-1.595-2.18-2.714-4.604-3.304-7.088L9.647,36.983c-0.534-2.353,0.988-4.522,3.382-4.82l14.322-1.786  c0.709-0.081,1.427-0.122,2.15-0.122c1.867,0,3.771,0.271,5.64,0.817c2.156,0.633,4.273,1.635,6.239,3.014  c8.48,5.95,11.207,16.797,6.417,24.72c-4.16-3.223-10.436-7.574-15.405-10.756c-0.11-0.07-0.22-0.101-0.325-0.101  c-0.481,0-0.831,0.651-0.375,1.046c4.895,4.239,10.403,9.702,13.611,12.956C42.069,65.125,37.598,66.807,32.924,66.807z   M90.188,38.259c-0.082,3.394-0.868,6.855-2.341,10.131c-1.673,3.71-4.234,7.199-7.661,10.092  c-5.006,4.227-11.107,6.359-17.017,6.359c-4.335,0-8.568-1.147-12.192-3.456c3.382-5.287,9.307-14.318,14.64-21.284  c0.414-0.541-0.051-1.17-0.581-1.17c-0.17,0-0.346,0.065-0.503,0.218c-3.195,3.131-6.902,6.947-10.369,10.672  c-0.151-7.165-3.842-14.381-10.428-19.018c1.181-2.385,2.719-4.666,4.65-6.739c2.176-2.337,4.652-4.224,7.282-5.642  c3.163-1.701,6.559-2.731,9.939-3.055c0,0,19.45-1.652,19.612-1.652c2.964,0,5.279,2.316,5.237,5.357L90.188,38.259z"/>
</svg>
