<?xml version="1.0" encoding="UTF-8"?>
<svg fill="#706c6a" width="100px" height="70px" viewBox="0 0 100 48" version="1.1" xmlns="http://www.w3.org/2000/svg" xmlns:xlink="http://www.w3.org/1999/xlink">
    <path d="M73.774,0.74 C62.605,0.74 50,9.545 50,9.545 C50,9.545 38.237,0.74 26.226,0.74 C18.161,0.74 0,9.545 0,9.545 L0,23.372 C0,37.535 11.742,47.26 26.226,47.26 C36.75,47.26 41.992,34.207 50,34.207 C58.008,34.207 63.251,47.26 73.774,47.26 C88.258,47.26 100,37.535 100,23.372 L100,9.545 C100,9.545 81.923,0.74 73.774,0.74 Z M30.5,25.1990667 C26.3579615,25.1990667 23,21.5709456 23,17.0961195 C23,12.6212935 38,12.6212935 38,17.0961195 C38,21.5709456 34.6420385,25.1990667 30.5,25.1990667 Z M69.5,25.1990667 C65.3579615,25.1990667 62,21.5709456 62,17.0961195 C62,12.6212935 77,12.6212935 77,17.0961195 C77,21.5709456 73.6420385,25.1990667 69.5,25.1990667 Z"/>
</svg>
