<?xml version="1.0" encoding="UTF-8"?>
<svg width="123px" height="60px" viewBox="39 95 123 50" version="1.1" xmlns="http://www.w3.org/2000/svg" xmlns:xlink="http://www.w3.org/1999/xlink">
    <path fill="#5f5953" fill-rule="nonzero" d="M161.267913,107.644488 C161.431333,108.359286 160.983588,109.071427 160.267461,109.234847 C146.926776,112.270746 133.74154,118.802248 118.774623,129.791274 C117.127132,131.000319 115.353423,132.566763 113.476081,134.224882 C107.953003,139.102251 101.275353,145 93.7540289,145 C92.4905102,145 91.2030763,144.833922 89.8943844,144.468552 C85.5610222,143.258906 82.3278302,140.233709 79.2853018,137.117988 L78.6359183,136.449577 C78.5280636,136.338153 78.4203693,136.226772 78.3127938,136.11551 C76.7312858,134.479793 75.2022745,132.89843 73.5628547,131.55603 C73.4745787,131.502603 73.394929,131.43823 73.3239356,131.366181 C72.2647131,130.516179 71.1543669,129.770341 69.9517809,129.176122 C61.4911213,124.993623 48.9383086,126.847049 40.8549775,130.338666 C40.1787093,130.628305 39.3974801,130.317408 39.1091693,129.646454 C38.8182013,128.972843 39.1290986,128.190285 39.8013809,127.900646 C48.7151003,124.050302 61.8591494,122.214147 71.1302678,126.795233 C71.9953569,127.222791 72.8155755,127.716954 73.6004492,128.260235 C75.0369319,124.497397 79.1976167,116.005313 88.3518553,112.836739 C97.8486668,109.552392 109.691968,113.029423 123.569622,123.168399 C136.288202,114.623379 147.905637,109.322055 159.678882,106.644036 C160.389694,106.477958 161.104493,106.929689 161.267913,107.644488 Z M89.2221021,115.347833 C80.4593254,118.379761 76.7578097,127.256954 75.8097684,129.978277 C77.3700877,131.318171 78.8095281,132.806438 80.223351,134.268727 C83.4545577,137.608881 86.5050719,140.764356 90.607854,141.908299 C98.333786,144.063322 105.439252,137.778944 111.715658,132.233279 C113.639502,130.533973 115.457055,128.928998 117.201535,127.649536 C118.561537,126.65101 119.907472,125.68847 121.240741,124.761222 C108.441512,115.588977 97.6765695,112.421828 89.2221021,115.347833 Z M60.5996165,113.645869 C61.5362944,114.144102 62.3998982,114.728696 63.2356009,115.296017 C64.0022153,115.816836 64.5562503,116.163606 65.227204,116.471847 C65.7480235,116.713656 66.2435992,117.029867 66.7219028,117.33545 C67.4008282,117.769909 68.1023402,118.217655 68.6563752,118.296043 C69.383131,118.399676 69.8893357,119.07063 69.7870318,119.797385 C69.6940284,120.461696 69.1240499,120.941328 68.4730255,120.941328 C68.4119089,120.941328 68.3481351,120.937342 68.2856899,120.928042 C67.1590192,120.768607 66.1665392,120.134855 65.2909778,119.575506 C64.8684763,119.304467 64.4672327,119.049372 64.1124909,118.884623 C63.2821026,118.50198 62.5991914,118.076821 61.832577,117.556001 C60.9304432,116.944836 60.1625002,116.424016 59.3507126,115.992214 C58.7036741,115.648101 58.4565506,114.844286 58.8019921,114.195918 C59.146105,113.547551 59.9472635,113.301756 60.5996165,113.645869 Z M133.461201,110.18614 C133.8279,110.822549 133.608678,111.634337 132.973597,112.001036 C132.41159,112.32522 131.723364,112.838068 130.993951,113.382802 C129.194998,114.723381 127.155565,116.243324 125.217107,116.288497 C125.205149,116.28584 125.195849,116.28584 125.18522,116.28584 C124.465107,116.28584 123.873871,115.710547 123.856598,114.987777 C123.839326,114.254378 124.421262,113.645869 125.154661,113.629926 C126.246788,113.604682 127.997911,112.299976 129.40492,111.250365 C130.199436,110.659129 130.948778,110.099779 131.647633,109.698536 C132.284042,109.330508 133.097159,109.551059 133.461201,110.18614 Z M70.2865934,101.693593 C71.0359357,103.32514 72.0071578,104.830468 73.0328533,106.426142 C74.0107185,107.944756 75.0217992,109.513858 75.8282722,111.206521 C76.1444841,111.869503 75.8628164,112.661361 75.201163,112.977573 C75.0164847,113.065262 74.822506,113.106449 74.6311846,113.106449 C74.1342803,113.106449 73.6586339,112.827439 73.4314397,112.349135 C72.6967122,110.809263 71.7759777,109.378338 70.8007698,107.865039 C69.7684311,106.262722 68.7015483,104.605931 67.8738174,102.802992 C67.5669059,102.136024 67.8592025,101.346823 68.5248417,101.04124 C69.1957954,100.735658 69.9823391,101.026626 70.2865934,101.693593 Z M81.9904172,96.371137 C82.7224874,96.4216246 83.2751938,97.0567056 83.2247062,97.7887758 C83.0440137,100.38623 84.4111649,104.802567 85.8832771,106.380969 C86.3841673,106.917732 86.353609,107.758749 85.8181747,108.258311 C85.5617508,108.497462 85.23491,108.61571 84.9107265,108.61571 C84.554656,108.61571 84.2012428,108.473547 83.9395044,108.193208 C81.791124,105.889379 80.3655135,100.609439 80.5727784,97.6040975 C80.6245946,96.8720272 81.2636614,96.3233067 81.9904172,96.371137 Z M123.573602,101.063827 C124.135609,101.535487 124.208683,102.373847 123.735694,102.935854 C122.660839,104.215316 121.178098,105.365902 119.745845,106.479287 C119.062933,107.009407 118.40128,107.520926 117.837945,108.013844 C117.588164,108.234395 117.275938,108.342014 116.96504,108.342014 C116.595684,108.342014 116.226327,108.187894 115.964589,107.887625 C115.482299,107.334919 115.538101,106.496559 116.090808,106.012941 C116.690016,105.488135 117.391528,104.943401 118.116955,104.380065 C119.440262,103.353041 120.808742,102.290144 121.701575,101.227247 C122.171907,100.666569 123.010267,100.590838 123.573602,101.063827 Z M112.926032,95.6961975 C113.575728,96.0363245 113.828166,96.8388117 113.489368,97.489836 C112.835686,98.7413972 112.132845,99.9663859 111.426019,101.191375 C110.441511,102.902639 109.422458,104.673691 108.584098,106.47663 C108.358233,106.960248 107.877272,107.244573 107.376382,107.244573 C107.189046,107.244573 106.999053,107.204714 106.817032,107.121011 C106.151393,106.811442 105.863082,106.020912 106.172651,105.355273 C107.06017,103.447373 108.108452,101.627162 109.12219,99.8654107 C109.809087,98.6709803 110.495984,97.4792071 111.132394,96.2595329 C111.472521,95.6085085 112.276336,95.3573991 112.926032,95.6961975 Z M96.4179143,95 C97.1526418,95 97.7465355,95.5965509 97.7452068,96.3299498 C97.7438782,97.0487338 97.8368817,98.0000266 97.9351997,99.0057928 C98.179666,101.524859 98.432104,104.128956 97.5910868,105.716658 C97.3532636,106.165732 96.8922321,106.422156 96.4152571,106.422156 C96.2053349,106.422156 95.9927555,106.371668 95.7934624,106.266707 C95.1450952,105.922595 94.8979717,105.118779 95.2420846,104.470412 C95.7097592,103.589536 95.4666216,101.089071 95.2899149,99.2622167 C95.1849539,98.1886908 95.0866359,97.1749528 95.0879645,96.3272925 C95.0892931,95.5938937 95.6831868,95 96.4165857,95 L96.4179143,95 Z"></path>
</svg>
