<?xml version="1.0" encoding="UTF-8"?>
<svg width="74px" height="50px" viewBox="63 95 74 50" version="1.1" xmlns="http://www.w3.org/2000/svg" xmlns:xlink="http://www.w3.org/1999/xlink">
    <path fill="#5f5953" fill-rule="nonzero" d="M136.425428,95.6350765 C136.547866,96.0922939 136.276447,96.5614983 135.820086,96.6839367 C133.045102,97.427129 130.684524,100.585696 128.601359,103.372668 C128.456391,103.566504 128.313376,103.757801 128.172023,103.945906 C128.177617,104.096914 128.140264,104.252054 128.057665,104.393273 C124.298892,110.86367 122.568487,116.664508 122.653252,122.561243 C123.199516,122.181084 123.958976,121.22812 124.924784,119.71348 C125.120856,119.405244 125.290386,119.141531 125.423099,118.958301 C126.256194,117.804983 126.873523,116.575462 127.528525,115.274019 C128.07222,114.191767 128.634752,113.073554 129.327427,112.015275 C129.5235,111.716457 129.883966,111.571757 130.229875,111.648816 C130.577498,111.725875 130.841211,112.010138 130.891727,112.362897 C131.050983,113.475117 130.858335,114.657546 130.671681,115.799734 C130.544105,116.586593 130.422523,117.330641 130.417386,118.013043 C130.413105,118.592698 130.401974,119.176635 130.391699,119.763141 C130.367725,121.050884 130.342039,122.373732 130.390843,123.663188 C131.878084,123.158879 132.85331,121.552625 133.801137,119.990893 C134.174446,119.376989 134.526349,118.797333 134.909076,118.281893 C135.191626,117.903448 135.728471,117.82382 136.106917,118.105514 C136.486219,118.388064 136.564991,118.924053 136.283297,119.303355 C135.947661,119.753722 135.616307,120.300842 135.26526,120.878785 C134.042589,122.891741 132.5211,125.397874 129.627102,125.530587 C129.615115,125.5323 129.601415,125.5323 129.587716,125.5323 C129.141629,125.5323 128.766608,125.18639 128.734929,124.736878 C128.616771,123.077539 128.648451,121.376245 128.680131,119.730605 C128.691262,119.150949 128.701536,118.573006 128.705817,118.0002 C128.709242,117.503596 128.761471,116.997575 128.831681,116.49241 C128.244319,117.655146 127.62014,118.841 126.811876,119.96007 C126.71735,120.090899 126.603097,120.267758 126.471309,120.473989 L126.369214,120.633909 C125.266412,122.364314 123.590805,124.975762 121.581274,124.375557 C121.233652,124.271099 120.989632,123.958581 120.971651,123.595547 C120.761874,119.147924 121.510264,114.790117 123.297783,110.231721 L122.756854,110.961278 L122.756854,110.961278 C121.172005,113.100096 119.533214,115.311693 117.744587,117.370027 C117.231716,117.959958 116.414033,119.078171 115.467918,120.371052 C111.399197,125.932151 107.823654,130.543711 105.278991,130.655874 C103.784879,130.728978 102.240824,129.672152 100.791221,128.23747 C100.835457,128.81917 100.805543,129.423469 100.67,130.056526 C100.258162,131.987285 99.1108372,132.387136 98.4635406,132.453064 C97.2246014,132.577215 95.8246942,131.725284 94.7218926,130.66358 C94.7398731,130.762901 94.7587098,130.863078 94.7775464,130.964111 C95.0224232,132.286103 95.299836,133.783618 94.941083,135.366755 C94.8468996,135.781162 94.4564668,136.057718 94.0394914,136.031176 C91.7123062,135.851371 89.6222918,133.865815 88.3020124,131.739839 C88.3217053,134.40266 87.9355535,136.351399 85.9311604,138.409733 C85.7650552,138.580976 85.54244,138.667453 85.3189685,138.667453 C85.1066279,138.667453 84.893431,138.588682 84.728182,138.431139 C82.6929652,136.489249 82.6013505,132.697941 82.6218996,129.470876 C80.4231463,132.247573 76.6806421,135.969528 74.0683382,135.969528 L74.0666257,135.969528 C73.0965371,135.969528 72.3036845,135.475494 71.8353363,134.579896 C71.7290408,134.376705 71.6661036,134.153069 71.6403894,133.911087 L64.5703745,144.615561 C64.4059817,144.864718 64.13285,145 63.8554372,145 C63.693613,145 63.5292203,144.953765 63.3845204,144.857869 C62.9898065,144.59758 62.8810675,144.065872 63.1422123,143.671158 L71.7557086,130.628476 C72.3387892,129.745721 73.0648573,128.355232 73.906514,126.745553 C77.192657,120.456673 82.1595449,110.952716 88.4235945,112.951971 C91.4965407,113.932335 93.7509478,116.840032 95.7390729,119.405244 C96.2981796,120.127031 96.8273188,120.80772 97.3436149,121.408781 C97.6783939,121.797501 98.0970817,122.338628 98.5757045,122.959382 C98.7487072,123.183472 98.9374447,123.42794 99.1389483,123.685883 C99.356207,123.770489 99.5370963,123.941337 99.6271332,124.174347 L99.7230068,124.423912 C101.380437,126.486967 103.59568,128.946875 105.140285,128.946875 L105.202788,128.946018 L105.202788,128.946018 C107.133547,128.860397 111.828159,122.443942 114.085135,119.360721 C115.054367,118.03616 115.891743,116.891405 116.451706,116.247533 C118.196667,114.238859 119.814908,112.054661 121.380064,109.942385 C122.709762,108.147764 124.084839,106.291496 125.542969,104.533692 C126.074677,103.891532 126.635496,103.142346 127.228851,102.347781 C129.478977,99.3373388 132.027921,95.9261887 135.376568,95.0297344 C135.833785,94.9064398 136.303846,95.1778591 136.425428,95.6350765 Z M77.9953069,122.795599 L77.9846535,122.78557 C78.3519686,123.084389 78.4067662,123.623802 78.1088043,123.990261 C77.1507026,125.168409 76.0975614,127.031527 75.2216562,129.09928 C75.1300415,129.315902 74.9596552,129.6464 74.7541643,130.043683 C73.6710556,132.138834 73.2001388,133.400035 73.3542571,133.790468 C73.5563232,134.17662 73.7866443,134.257104 74.0674819,134.257104 L74.0683382,134.257104 C76.4237784,134.25796 81.5482093,128.562435 82.7126581,126.346558 C82.8924627,126.004073 83.2760458,125.822556 83.6579166,125.909033 C84.0355062,125.993798 84.3103504,126.321727 84.3257622,126.708735 C84.3514486,127.331202 84.3454551,128.067544 84.3394616,128.866391 C84.3172001,131.350263 84.2880889,134.631268 85.3523608,136.4687 C86.405502,135.079924 86.6092806,133.70399 86.5913001,131.716721 L86.5844504,131.321151 C86.5656137,130.316814 86.5459208,129.279085 87.0690666,128.224231 C87.2291783,127.903152 87.5673822,127.714785 87.9269914,127.754171 C88.2831757,127.791844 88.578569,128.047852 88.6659026,128.395474 C89.1830549,130.443534 91.1857356,133.418872 93.3904824,134.160352 C93.4521297,133.208243 93.2774624,132.263841 93.0942329,131.276628 C92.8836047,130.141291 92.6661268,128.966567 92.8305195,127.755883 C92.8827485,127.375725 93.1807104,127.076907 93.5608687,127.023822 C93.945308,126.969024 94.3100545,127.176227 94.4641727,127.527274 C95.0635214,128.892933 97.2579936,130.853659 98.2905857,130.749202 C98.6176589,130.715809 98.8548297,130.362194 98.9969609,129.698629 C99.3204323,128.181944 98.8040918,126.775803 98.2266572,125.297023 C97.8760054,124.854245 97.5401748,124.4188 97.2211765,124.005673 C96.7639591,123.41403 96.3649642,122.896878 96.0464532,122.525282 C95.5001897,121.890828 94.9590635,121.193015 94.3871136,120.454104 C92.5505381,118.085821 90.4699421,115.401595 87.9047298,114.583056 C84.2472337,113.412069 80.7765143,117.992946 77.9953069,122.795599 Z"></path>
</svg>
