<?xml version="1.0" encoding="UTF-8"?>
<svg width="51px" height="50px" viewBox="75 95 51 50" version="1.1" xmlns="http://www.w3.org/2000/svg" xmlns:xlink="http://www.w3.org/1999/xlink">
    <path fill="#606060" fill-rule="nonzero" d="M106.92721,131.155555 C107.997434,131.211882 108.955002,131.380865 109.799915,131.944141 C110.025225,132.113123 110.194208,132.225778 110.419518,132.338433 C111.658724,132.901709 112.503638,133.859277 113.066913,135.042156 C113.855499,136.731982 114.418774,138.478136 113.968154,140.336946 C113.799171,141.012876 113.404878,141.576152 113.010586,142.195755 C112.728948,142.646375 112.334655,142.984341 111.940362,143.378633 C111.715052,143.603944 111.546069,143.829254 111.264432,143.885581 C109.68726,144.279874 108.053761,144.674167 106.420262,144.955805 C105.856987,145.06846 105.181056,144.955805 104.617781,144.730495 C102.702644,143.941909 101.238127,142.53372 100.449542,140.674911 C100.111576,139.886325 100.167904,138.872429 100.111576,137.971189 C100.111576,137.464241 100.167904,136.900965 100.280559,136.33769 C100.336887,136.056052 100.393214,135.774414 100.562197,135.549104 C101.069145,134.816846 101.63242,134.084587 102.195696,133.352329 C103.491229,131.887813 105.068401,131.211882 106.92721,131.155555 Z M89.0150489,135.267466 C90.1415999,135.549104 91.380806,135.830742 92.5636846,136.281362 C93.1832876,136.506672 93.7465632,137.069948 94.0845285,137.633223 C94.647804,138.478136 94.7604591,139.435705 94.1971836,140.449601 C93.3522703,141.970445 92.3383744,143.265978 90.5922203,143.885581 C89.2403591,144.392529 87.3252223,143.772926 86.4803091,142.646375 C86.0296887,142.026772 85.5790682,141.463497 85.1284478,140.843894 C84.6214999,140.111635 84.5088448,139.379377 84.8468101,138.478136 C85.353758,137.01362 86.4239815,136.168707 87.7758427,135.549104 C88.113808,135.492776 88.4517734,135.436449 89.0150489,135.267466 Z M81.0728642,138.027516 C81.3545019,138.816102 81.5798121,139.604688 81.7487948,140.449601 C81.8051223,140.731239 81.6924672,141.125531 81.5234846,141.407169 C80.847554,142.477393 79.7210029,142.984341 78.5944519,143.378633 C78.3691417,143.434961 78.087504,143.378633 77.8621937,143.265978 C77.1862631,142.871685 76.5103325,142.421065 75.8907295,141.970445 C75.2147988,141.294514 74.8768335,140.618583 75.1021437,139.661015 C75.1021437,139.435705 75.1021437,139.09774 75.0458162,138.816102 C74.8768335,137.689551 75.1584713,137.126275 76.1723672,136.619327 C76.3976774,136.506672 76.6229876,136.450345 76.8482978,136.33769 C78.7634346,135.436449 80.340606,136.056052 81.0728642,138.027516 Z M104.899418,133.690295 C104.223488,134.084587 103.71654,134.704191 103.096937,135.154811 C102.421006,135.661759 102.195696,136.450345 102.139368,137.23893 C102.139368,138.027516 102.083041,138.872429 102.308351,139.604688 C102.758971,140.900221 103.660212,141.85779 104.786763,142.590048 C104.899418,142.646375 105.124728,142.646375 105.293711,142.646375 L107.265175,142.646375 L107.265175,142.646375 L107.877187,142.560234 C109.302649,142.351536 110.701156,142.061977 111.884035,141.125531 C111.99669,141.069204 112.053017,140.956549 112.165672,140.900221 C112.841603,140.280618 113.123241,139.492032 112.785275,138.647119 C112.278327,137.464241 111.715052,136.281362 111.151776,135.154811 C110.982794,134.816846 110.588501,134.591535 110.250536,134.366225 C109.68726,134.02826 109.067657,133.746622 108.504382,133.464984 C107.265175,132.901709 106.025969,133.070692 104.899418,133.690295 Z M86.3113264,138.816102 C86.367654,140.900221 88.8460662,142.590048 90.7612029,141.85779 C91.7750989,141.407169 92.7326672,140.167963 92.7326672,138.928757 C92.5636846,138.647119 92.3947019,137.971189 92.0004091,137.633223 C91.0991683,136.957293 90.0852723,136.506672 88.9023938,136.450345 C87.6631876,136.394017 86.3113264,137.633223 86.3113264,138.816102 Z M77.6368835,137.858533 C77.0172805,138.083844 76.6793152,138.647119 76.6229876,139.32305 C76.5666601,140.336946 77.4679009,141.181859 78.5381244,141.181859 C79.1013999,141.181859 80.1716233,140.562256 80.340606,140.167963 C80.5659162,139.492032 80.1152958,139.09774 79.6646754,138.703447 C79.4956927,138.590792 79.3830376,138.421809 79.214055,138.252826 C78.7634346,137.802206 78.2001591,137.633223 77.6368835,137.858533 Z M124.952026,133.633967 C125.458974,133.915605 125.909595,135.605431 125.57163,136.112379 C125.064682,136.900965 124.501406,137.689551 123.881803,138.365481 C123.543838,138.703447 122.924235,138.759774 122.698924,138.872429 C120.95277,138.872429 119.769892,138.083844 119.769892,136.957293 C119.769892,135.999724 120.05153,134.985828 120.389495,134.084587 C120.50215,133.690295 120.95277,133.352329 121.347063,133.183347 C122.586269,132.676399 123.825475,133.014364 124.952026,133.633967 Z M121.403391,134.366225 C120.95277,134.873173 120.896443,135.718086 120.840115,136.450345 C120.840115,136.844638 121.741356,137.23893 122.417287,137.23893 C123.48751,137.23893 124.332423,136.563 124.332423,135.661759 C124.332423,135.042156 123.881803,134.647863 123.374855,134.47888 C122.755252,134.25357 121.854011,133.80295 121.403391,134.366225 Z M96.5629407,128.001212 C97.2388713,128.789798 98.0837846,129.522056 98.027457,130.930245 C98.1401121,131.71883 97.407854,132.282106 96.7882509,132.789054 C96.1686478,133.296002 95.4363897,133.633967 94.4788213,133.127019 C93.9155458,132.789054 93.0706325,132.901709 92.7889948,132.056796 C92.3947019,131.099227 92.0004091,130.085331 92.3947019,129.015108 C92.507357,128.677143 92.8453223,128.339177 93.1269601,128.113867 C93.3522703,127.888557 93.7465632,127.888557 94.0282009,127.663247 C94.9857693,126.818333 95.8870101,127.268954 96.5629407,128.001212 Z M84.9031376,125.74811 C85.353758,126.311385 86.0296887,126.705678 86.2549989,127.494264 C86.5366366,128.339177 86.4239815,129.465728 85.5227407,130.197986 C84.3961897,131.099227 83.2133111,131.831485 81.6924672,131.775158 C78.8197621,131.606175 77.4679009,129.747366 77.4679009,127.156299 C77.4679009,126.762006 77.6932111,126.311385 77.9748489,126.029748 C79.9463131,124.001956 82.9880009,123.495008 84.9031376,125.74811 Z M93.3522703,129.522056 C93.2959427,130.648607 93.9155458,131.26821 95.0984244,131.437193 C95.6616999,131.211882 96.281303,131.099227 96.8445785,130.81759 C97.3515264,130.535952 97.5205091,130.141659 97.1825438,129.578383 C96.7319234,128.677143 95.774355,128.395505 94.9294417,128.170195 C94.3661662,128.001212 93.4085978,128.95878 93.3522703,129.522056 Z M79.7210029,125.860765 C78.7634346,126.311385 78.5944519,126.536696 78.7634346,127.606919 C78.8760897,128.113867 78.9887448,128.677143 79.2703825,129.127763 C79.8899856,130.141659 80.7348989,130.873917 82.1994152,130.873917 C82.593708,130.761262 83.2133111,130.704934 83.7765866,130.479624 C85.2974305,129.860021 85.7480509,128.620815 84.734155,127.325281 C83.100656,125.184834 81.8051223,124.846869 79.7210029,125.860765 Z M118.305375,119.552079 C119.657237,119.664734 120.896443,120.115355 121.966666,120.960268 C122.304632,121.241906 122.586269,121.523544 122.867907,121.805181 C123.48751,122.424784 123.71282,123.100715 123.543838,124.058283 C123.2622,125.860765 122.248304,127.099971 121.009098,128.226522 C119.995202,129.127763 118.587013,129.240418 117.347807,128.95878 C115.657981,128.564487 114.306119,127.550592 113.799171,125.804437 C113.630189,125.241162 113.630189,124.677886 113.630189,124.114611 C113.630189,123.607663 113.742844,123.100715 113.855499,122.650095 C113.968154,122.255802 114.080809,121.805181 114.362447,121.523544 C115.43267,120.340665 116.615549,119.495752 118.305375,119.552079 Z M115.488998,122.255802 C115.20736,122.98806 115.094705,123.720318 114.925722,124.452576 C114.75674,125.804437 115.488998,126.424041 116.502894,126.930989 L117.178824,127.268954 L117.178824,127.268954 C119.037634,128.113867 121.234408,127.325281 122.135649,125.466472 C122.417287,124.846869 122.473614,124.283594 122.135649,123.663991 C121.178081,121.805181 119.600909,120.960268 117.629445,120.847613 C116.671876,120.791285 115.826963,121.298233 115.488998,122.255802 Z M102.533661,116.116099 C105.181056,116.228754 107.603141,118.819821 107.490486,121.410889 C107.377831,124.001956 105.068401,125.97342 102.364678,125.860765 C99.8862662,125.74811 97.7458193,123.720318 97.8021468,121.523544 C97.8584744,117.974908 100.111576,116.003444 102.533661,116.116099 Z M91.2681509,120.22801 C92.9016499,120.284337 94.2535111,121.974164 93.8592183,123.495008 C93.7465632,123.832973 93.3522703,124.114611 93.014305,124.396249 C91.5497887,125.466472 89.5783244,124.903197 88.9023938,123.269698 C88.3954458,121.917836 89.8036346,120.171682 91.2681509,120.22801 Z M90.7048754,121.410889 C90.254255,121.636199 89.8036346,121.861509 89.8599621,122.481112 C89.9162897,123.269698 91.0428407,124.227266 91.8314264,124.114611 C92.0567366,124.058283 92.2820468,123.832973 92.5636846,123.720318 C92.3383744,122.98806 92.1693917,122.368457 91.887754,121.805181 C91.6624438,121.354561 91.2118234,121.241906 90.7048754,121.410889 Z M102.477334,117.298977 C101.125472,117.355305 100.055249,117.805925 99.4919734,119.045131 C99.3229907,119.439424 99.2666632,120.0027 99.4356458,120.340665 C99.8299387,121.185578 100.449542,121.805181 101.350783,122.199474 C102.815299,122.875405 104.110833,122.312129 105.406366,121.805181 C106.025969,121.523544 106.082297,121.072923 105.744332,120.340665 C105.237384,119.214114 104.336143,118.425528 103.434902,117.636943 C103.265919,117.46796 102.815299,117.411632 102.477334,117.298977 Z M90.873858,113.525031 C91.2118234,115.045875 90.4795652,116.172426 89.4656693,117.186322 C89.0150489,117.636943 88.5081009,118.031235 88.0011529,118.369201 C86.1986713,119.608407 84.227207,119.833717 82.1994152,119.101459 C81.8051223,118.988804 81.467157,118.650839 81.2418468,118.369201 C80.0026407,116.792029 79.5520203,114.93322 79.3267101,113.243394 C79.3267101,111.215602 79.8899856,110.201706 82.1430876,109.41312 C82.7063631,109.18781 83.3822938,109.131482 83.9455693,109.018827 C86.5366366,108.399224 90.0852723,110.201706 90.873858,113.525031 Z M82.5373805,110.933964 C81.467157,111.215602 80.9602091,111.72255 80.847554,112.792773 C80.7912264,113.525031 80.7912264,114.313617 81.0165366,114.989548 C81.974105,117.69327 82.4810529,118.200218 85.2974305,118.312873 C87.1562397,118.425528 88.7897387,117.411632 89.4093417,115.778133 C90.0852723,114.088307 89.0150489,112.060515 87.2688948,111.553567 C86.7056193,111.384584 86.1423438,111.271929 85.5790682,111.046619 C84.5651723,110.652326 83.5512764,110.652326 82.5373805,110.933964 Z M116.277584,109.582103 C118.080065,109.63843 119.488254,111.94786 118.643341,113.637686 C118.418031,114.144634 118.080065,114.538927 117.685772,114.93322 C117.51679,115.15853 117.235152,115.327513 116.953514,115.383841 C115.094705,115.778133 112.841603,113.356049 113.348551,111.49724 C113.630189,110.708654 115.263688,109.582103 116.277584,109.582103 Z M114.75674,111.835205 C114.75674,112.905428 115.376343,113.581359 116.390239,113.581359 C117.066169,113.581359 117.911083,112.792773 117.911083,112.229498 C117.854755,111.666222 116.728204,110.539671 116.108601,110.483344 C115.43267,110.427016 114.813067,111.046619 114.75674,111.835205 Z M97.2388713,106.822053 C99.0976805,106.87838 100.843835,108.511879 100.787507,110.201706 C100.674852,111.609895 98.9286979,113.243394 97.5768366,113.243394 C95.6616999,113.187066 93.8028907,111.440912 93.9155458,109.694758 C93.9718734,108.061259 95.4927172,106.822053 97.2388713,106.822053 Z M96.3939581,107.835949 C95.7180274,108.117586 95.3800621,108.793517 95.6053723,109.582103 C95.8306825,110.595999 96.8445785,111.440912 97.8584744,111.609895 C98.6470601,111.72255 99.0976805,111.328257 99.0976805,110.258033 C98.9286979,109.863741 98.6470601,109.18781 98.2527672,108.511879 C97.8584744,107.723294 97.1825438,107.497983 96.3939581,107.835949 Z M105.856987,97.5280068 C107.659468,97.9786273 108.955002,99.1051783 109.743588,100.795005 C109.968898,101.13297 109.91257,101.639918 110.025225,102.090538 C110.137881,104.737933 107.941106,106.033467 106.082297,106.371432 C105.293711,106.540415 104.223488,106.089795 103.603885,105.526519 C102.702644,104.794261 102.026713,103.836693 101.463438,102.822797 C100.843835,101.639918 100.787507,100.344384 101.350783,99.1051783 C101.463438,98.8235405 101.63242,98.5982303 101.857731,98.4292477 C103.096937,97.640662 104.448798,97.133714 105.856987,97.5280068 Z M123.656493,97.8096446 C124.107113,98.4292477 124.445078,99.1051783 124.783044,99.7247813 C125.402647,100.963987 125.121009,102.146866 124.445078,103.273417 C123.71282,104.568951 122.642597,105.301209 121.121753,105.357536 C120.445822,105.526519 119.769892,105.695502 118.812323,105.864484 C118.023738,105.639174 117.066169,105.470192 116.164928,105.075899 C114.813067,104.512623 113.968154,102.710142 114.137137,101.076643 C114.249792,100.175402 114.475102,99.386816 115.151033,98.7108854 C115.826963,98.0349548 116.446566,97.133714 117.235152,96.5704385 C119.262944,95.1622497 122.191976,95.7818528 123.656493,97.8096446 Z M117.7421,98.0912824 C117.460462,98.260265 117.178824,98.4855752 116.897187,98.6545579 C114.869395,99.9500915 114.700412,102.034211 116.502894,103.66771 C117.404135,104.456296 118.418031,104.625278 119.544582,104.794261 C120.333167,104.568951 121.121753,104.343641 121.910339,104.174658 C123.093217,103.949348 123.600165,103.048107 124.107113,102.146866 C124.445078,101.470935 124.501406,100.795005 123.825475,100.231729 C123.543838,100.006419 123.431183,99.6121262 123.205872,99.2741609 C121.966666,97.2463691 119.713564,96.7394211 117.7421,98.0912824 Z M89.9162897,95.2749048 C91.3244785,95.6128701 92.6200121,96.2324732 93.5775805,97.3026966 C94.1971836,97.9786273 94.5914764,98.8235405 94.9857693,99.6121262 C95.0984244,99.893764 94.9857693,100.400712 94.8167866,100.795005 C93.5775805,103.386072 91.1554958,104.794261 88.1701356,104.681606 C86.4803091,104.963244 85.353758,103.949348 84.5651723,102.372176 C84.0582244,101.301953 83.4949489,100.175402 83.5512764,98.9361956 C83.5512764,98.5419028 83.607604,98.0349548 83.8892417,97.7533171 C84.734155,96.9084038 85.6353958,96.1198181 86.6492917,95.4438875 C87.6631876,94.7679568 88.8460662,94.993267 89.9162897,95.2749048 Z M102.815299,100.344384 C102.871626,100.851332 103.040609,101.414608 103.209592,101.921556 C103.71654,103.498727 104.899418,104.230985 106.420262,104.512623 C107.377831,104.681606 108.560709,103.498727 108.504382,102.259521 C108.222744,101.470935 107.941106,100.344384 107.15252,99.6684538 C106.47659,99.1051783 105.519021,98.8235405 104.674108,98.5982303 C103.434902,98.3165926 102.646316,99.0488507 102.815299,100.344384 Z M79.4393652,98.260265 C80.5659162,98.8235405 81.6361397,99.4994711 82.1430876,100.68235 C82.1994152,100.851332 82.3120703,101.076643 82.2557427,101.301953 C82.0867601,102.935452 80.9038815,104.456296 78.9887448,104.512623 C77.4115733,104.568951 75.6090917,102.935452 75.5527642,101.301953 C75.5527642,101.076643 75.5527642,100.795005 75.7217468,100.569695 C76.5103325,99.4994711 77.3552458,98.4855752 78.8197621,98.260265 C79.0450723,98.2039375 79.2703825,98.2039375 79.4393652,98.260265 Z M88.3391182,96.0634905 C86.8746019,96.1198181 85.860706,96.9084038 85.8043785,98.1476099 C85.6917233,99.8374364 86.6492917,101.527263 88.1701356,102.203194 C88.7334111,102.428504 89.3530142,102.484831 89.9726172,102.653814 C91.2118234,102.991779 92.2257193,102.484831 92.9579774,101.527263 C93.2959427,101.020315 93.5775805,100.175402 93.3522703,99.6684538 C92.9016499,98.5982303 92.2820468,97.4153517 91.1554958,96.9084038 C90.254255,96.5141109 89.2966866,96.3451283 88.3391182,96.0634905 Z M77.2425907,100.738677 C77.2989182,101.752573 78.3128142,102.710142 79.6083478,102.710142 C79.833658,102.597486 80.4532611,102.428504 80.6222438,102.034211 C80.7912264,101.696246 80.6785713,101.020315 80.3969335,100.68235 C80.0589682,100.175402 79.4956927,99.7247813 78.9324172,99.4431436 C78.2564866,99.1051783 77.1862631,99.9500915 77.2425907,100.738677 Z"></path>
</svg>
