<?xml version="1.0" encoding="UTF-8"?>
<svg fill="#706c6a" width="42px" height="43px" viewBox="0 0 42 43" version="1.1" xmlns="http://www.w3.org/2000/svg" xmlns:xlink="http://www.w3.org/1999/xlink">
  <path d="m11.52,20.93c.31,0,.61,0,.92,0,.01,0,.04-.04.04-.07,0-.27,0-.54,0-.8,0-.05.09-.14.14-.14.27-.01.54,0,.82,0,.03,0,.09-.06.09-.09,0-.59,0-1.19,0-1.78,0-.04.07-.12.11-.12.25,0,.51,0,.76.01.03,0,.09.06.09.1,0,.58,0,1.16.01,1.75,0,.05.08.14.13.14,1.27,0,2.53,0,3.8,0,.01,0,.04-.03.04-.05,0-.07,0-.14,0-.21,0-.26-.04-.74.02-.75.32-.07.66-.03.99-.02.02,0,.04.05.04.08,0,.27,0,.55.01.82,0,.04.08.12.12.12.25,0,.5-.02.76-.02.03,0,.09.11.09.17.01.24.01.49,0,.73,0,.04-.07.11-.12.12-.1.02-.22.02-.32,0-.45-.1-.57.1-.54.53.03.44.01.89,0,1.33,0,.06-.11.17-.17.17-.92.01-1.84,0-2.76,0-.02,0-.07-.07-.07-.11,0-.26,0-.52-.01-.78,0-.04-.07-.12-.1-.12-.28-.01-.56,0-.84,0-.02,0-.05.08-.05.12,0,.24,0,.49-.01.73,0,.06-.1.15-.16.15-1.28,0-2.56,0-3.84,0,0-.68,0-1.35,0-2.03Zm2.97.46c0,.12-.05.27,0,.36.21.35.56.04.83.14.03.01.14-.1.14-.15-.02-.28-.04-.78-.1-.79-.84-.08-.84-.06-.87.44Z"/>
  <path d="m11.52,28.93c1.24,0,2.48,0,3.72-.02.21,0,.3.04.29.28-.02.73-.01.74.72.72.27,0,.36.05.32.32-.02.14.03.3-.01.44-.03.1-.14.22-.23.24-.2.03-.41-.02-.61,0-.07,0-.18.13-.19.2-.02.23.02.46.01.69,0,.05-.09.12-.15.15-.04.02-.1,0-.15,0q-.72,0-.72.71c0,.33,0,.67,0,1,0,.21-.08.27-.29.24-.15-.03-.37.08-.71.08.01-.08.04-.16.04-.24,0-.56,0-1.11-.02-1.67,0-.06-.1-.15-.16-.15-.61-.02-1.23-.02-1.84-.02,0-1,0-1.99,0-2.99Z"/>
  <path d="m11.52,10.93c.3,0,.61.01.91.01.02,0,.05-.05.05-.07,0-.26,0-.53,0-.79,0-.06.1-.15.15-.15.23-.02.46-.02.69,0,.08,0,.2.12.2.18.02.56,0,1.12.01,1.69,0,.04.07.12.11.12.25.02.5.01.76.02.03,0,.09.06.09.1.01.92.02,1.83.02,2.75,0,.04-.06.13-.1.13-.95,0-1.91-.02-2.86-.03-.01,0-.02,0-.04-.01,0-1.32,0-2.63,0-3.94Z"/>
  <path d="m25.54,28.94c.97,0,1.94,0,2.91,0,.04,0,.1.07.1.11,0,.29.11.68-.04.83-.14.14-.54.02-.82.04-.07,0-.18.12-.18.18-.02.77-.02.77.84.77.16,0,.21.02.21.2-.01.87,0,.87-.88.87-.33,0-.67,0-1,0-.05,0-.15-.09-.15-.15-.01-.59,0-1.18-.01-1.78,0-.03-.06-.09-.09-.09-.26,0-.52-.01-.77,0-.05,0-.13.08-.13.13,0,.59.01,1.17.02,1.76,0,.05-.07.14-.11.14-1.27,0-2.54,0-3.82-.01-.04,0-.12-.08-.12-.13,0-1.25-.01-2.5,0-3.75,0-.06.1-.16.16-.16.9-.01.89-.01.9.88,0,.05.1.14.15.14.94,0,1.88,0,2.83,0h0Z"/>
  <path d="m29.5,22.96c-.93,0-1.86,0-2.79,0-.06,0-.16-.09-.17-.14-.01-.92-.01-1.85,0-2.77,0-.04.1-.12.16-.12.57,0,1.14,0,1.71,0,.04,0,.11-.08.11-.12.01-.59.01-1.18.02-1.78,0-.03.06-.09.09-.09.29,0,.69-.11.84.03.15.14.04.55.04.83,0,.32,0,.64,0,.96,0,.06.1.17.16.17.93,0,1.86,0,2.79-.02.02,0,.07-.05.07-.08,0-.6,0-1.21,0-1.81,0-.03.06-.09.09-.09.22,0,.44-.03.65,0,.08.01.21.15.21.23.02.54,0,1.09,0,1.63,0,.05-.07.13-.11.13-.22.01-.45,0-.67.02-.07,0-.19.1-.19.16-.02.89-.01,1.77-.03,2.66,0,.07-.12.19-.19.19-.93.01-1.86,0-2.8,0Zm.95-1.57c.16-.45-.05-.58-.46-.5-.42.09-.55-.07-.48-.48.05-.29.06-.53-.39-.49-.56.05-.53.02-.57.58-.03.38.1.5.45.43.45-.09.62.08.52.52-.08.39.08.46.45.46.4,0,.65-.05.48-.53Zm-2.44-.45c-.43-.13-.55.05-.48.45.02.13,0,.26,0,.39,0,.03.03.09.04.09.29,0,.58.02.87-.02.03,0,.03-.29.05-.44.06-.38-.03-.62-.49-.47Z"/>
  <path d="m25.52,14.44c0-.8,0-1.61,0-2.41,0-.04.06-.1.1-.1,1.27,0,2.54,0,3.82,0,.02,0,.07.04.07.07,0,.26,0,.53,0,.79,0,.05-.07.11-.12.13-.07.02-.15,0-.23,0-.2,0-.57-.02-.57,0-.04.33-.03.66-.03.99,0,0,.05.03.07.03.26,0,.51,0,.77,0,.04,0,.07.07.11.1,0,0,0,.01,0,.02.01.85.01.85-.84.85-.67,0-1.33,0-2,.02-.06,0-.16.11-.17.17-.01.56,0,1.12-.01,1.68,0,.06-.11.17-.18.18-.23.02-.46.01-.7,0-.03,0-.09-.06-.09-.09,0-.81,0-1.62,0-2.43,0,0,0,0,0,0Z"/>
  <path d="m20.52,30.44c0,.46,0,.91,0,1.37,0,.05-.08.14-.13.14-.9,0-1.79,0-2.69-.02-.06,0-.17-.11-.17-.17,0-1.56,0-3.13,0-4.69,0-.04.07-.12.11-.12.6-.01,1.21-.02,1.81-.02.03,0,.09.05.09.09.01.26.02.53,0,.79,0,.04-.1.11-.16.12-.16.01-.32.02-.47,0-.36-.07-.43.08-.41.41.03.58.01.58.59.58.41,0,.83,0,1.24,0,.06,0,.16.1.16.16.02.23,0,.45,0,.68,0,.22,0,.45,0,.67,0,0,.01,0,.02,0Z"/>
  <path d="m23.02,22.96c-.46,0-.91,0-1.37,0-.05,0-.14-.08-.14-.13-.01-.93-.01-1.86,0-2.79,0-.04.14-.12.21-.12,1.24-.01,2.48-.02,3.72-.01.04,0,.11.09.11.14.01.21.03.43,0,.64-.01.08-.13.18-.22.22-.11.04-.24.03-.36,0-.41-.1-.5.07-.47.45.03.48.02.95,0,1.43,0,.06-.1.15-.16.16-.44.01-.87,0-1.31,0Z"/>
  <path d="m21.46,14.92c-.62,0-1.24,0-1.86,0-.04,0-.1-.07-.1-.1,0-.24-.02-.49,0-.73,0-.06.11-.17.18-.17.24-.02.48,0,.73,0,.04,0,.1-.07.1-.1,0-.29.11-.66-.03-.83-.12-.14-.53-.03-.81-.05-.05,0-.14-.09-.14-.14-.01-.26,0-.52,0-.78,0-.03.05-.08.08-.08.59,0,1.18,0,1.78,0,.04,0,.11.07.12.11.02.09.03.19,0,.28-.11.51.12.59.58.58.39,0,.54-.09.45-.48-.1-.4.05-.51.47-.52.43,0,.54.09.52.52-.04.76,0,1.52-.02,2.29,0,.06-.11.18-.17.18-.63.01-1.25,0-1.88,0,0,0,0,.01,0,.02Z"/>
  <path d="m30.48,13.39c0-.47,0-.93,0-1.4,0-.02.04-.07.07-.07.91,0,1.81,0,2.72,0,.08,0,.23.16.23.25.02.85.01,1.69,0,2.54,0,.06-.11.18-.16.18-.91.01-1.82,0-2.73,0-.04,0-.13-.09-.13-.14,0-.45,0-.91,0-1.36Z"/>
  <path d="m17,11.92c.47,0,.94,0,1.42,0,.03,0,.08.05.08.08.01.91.03,1.82.03,2.74,0,.06-.09.17-.14.17-.92,0-1.84,0-2.76,0-.05,0-.13-.09-.13-.14,0-.92,0-1.83,0-2.75,0-.03.06-.09.09-.09.47,0,.94,0,1.41,0Zm.51,1.56c0-.1,0-.13,0-.15.07-.35-.06-.42-.42-.44-.48-.02-.58.11-.56.57.01.38.07.49.48.48.41-.01.64-.06.5-.45Z"/>
  <path d="m16.14,10.96c-.65,0-.62,0-.65-.56-.02-.38.09-.49.48-.49.67,0,.56,0,.6.59.03.41-.08.58-.43.46Z"/>
  <path d="m17.54,10.46c-.15-.48.07-.54.51-.55.51-.01.45.25.47.58.03.38-.06.56-.47.48,0,0-.02,0-.03,0-.4.07-.65-.03-.48-.5Z"/>
  <path d="m35.45,4.4c-3.78,1.08-31.05-2.81-30.95,2.86,0,0,0,28.28,0,28.28,0,1.89,1.59,2.86,4.72,2.86.21-.08.85.06,1.03-.01.56.03,24.6,0,25.2.01,1.41,0,1.55-.32,1.55-1.68-.8-1.04,1.84-33.51-1.55-32.32Zm.55,32.32c1.38,1.24-28.33,1.36-27.34-.54-.35-8.42-.01-20.6-.12-29.01.75-3.75,24.17-.95,26.89-1.77,1.58.02.06,30.62.57,31.32Z"/>
</svg>
