<?xml version="1.0" encoding="UTF-8"?>
<svg fill="#706c6a" width="513px" height="415px" viewBox="0 0 513 415" version="1.1" xmlns="http://www.w3.org/2000/svg" xmlns:xlink="http://www.w3.org/1999/xlink">
    <g transform="translate(257.000000, 211.500000) rotate(64.000000) translate(-257.000000, -211.500000) translate(116.000000, -41.000000)" fill-rule="nonzero">
        <path d="M169.56,111.65 C204.986,112.525 278.62,114.2945 278.62,114.2945 C278.62,114.2945 294.87,232.7745 251.999,233.9945 C232.397,234.54919 221.749,206.8695 198.811,207.3925 C155.182,208.4237 149.682,292.8695 196.1508,295.1735 C219.9748,296.3532 230.7248,269.7045 251.9988,271.2395 C295.4328,274.3411 273.1398,342.0125 278.6198,388.2495 C234.5298,392.7026 162.1698,372.6985 158.9198,417.5115 C157.3456,439.4685 185.9898,450.5235 182.8608,476.0465 C178.3178,513.2455 103.4308,513.4255 97.7478,476.0465 C93.822,450.1015 121.1888,443.1015 121.6778,420.1795 C122.8028,369.5035 50.5408,394.0505 2.0178,388.2495 C9.6858,340.8745 -15.8842,276.2595 20.6198,268.5895 C46.4208,263.1364 50.8578,291.3625 76.4678,292.5075 C121.7378,294.5348 129.5498,210.5625 84.4326,207.4055 C61.0266,205.7766 52.7806,233.8395 31.2766,234.0075 C-13.5354,234.35906 6.1436,160.4135 2.0146,111.6675 C37.6906,103.8667 117.7846,131.3235 121.6746,87.7065 C123.4793,67.8275 95.3696,53.6905 95.0726,34.5345 C94.51401,-10.2585 179.4126,-11.7705 182.8576,31.89 C185.2014,61.538 136.3776,78.777 169.5606,111.648 L169.56,111.65 Z"></path>
    </g>
</svg>
