<svg fill="#5f5953" x="0px" y="0px" viewBox="0 0 90 90" enable-background="new 0 0 90 90" xmlns="http://www.w3.org/2000/svg" xmlns:xlink="http://www.w3.org/1999/xlink" version="1.1" xml:space="preserve">
    <polygon points="55.3,34.4 55.4,36.4 59.2,37.1 59.3,34.5 55.3,34.4 "/>
    <polygon points="52.4,34.1 51.8,35.8 48,35.5 48.8,32.7 52.4,34.1 "/>
    <polygon points="55.3,37.3 55.4,39.1 58.8,41.3 59.2,38.4 55.3,37.3 "/>
    <polygon points="54.6,37.6 53.5,39.7 52.6,37.4 54.6,37.6 "/>
    <polygon points="51.6,37.1 51.5,38.5 47.5,39.8 47.4,38.1 47.8,36.5 51.6,37.1 "/>
    <polygon points="55.3,40.1 54.3,41.2 56,45.3 57.2,44.5 58.3,43.1 55.3,40.1 "/>
    <polygon points="53.7,41.5 52.5,41.2 50.5,45.6 52.3,46.4 54,46.4 53.7,41.5 "/>
    <polygon points="52,40.8 48.9,44.3 47.3,41.3 51.5,39.4 52,40.8 "/>
    <polygon points="56.7,24.5 57,22.9 61.5,24.1 61,26.8 56.7,24.5 "/>
    <polygon points="57.1,21.9 56.9,19.7 61.7,20.1 61.6,22.9 57.1,21.9 "/>
    <polygon points="56.9,18.5 56.6,16.6 61.5,15.9 61.7,17.3 61.7,18.8 56.9,18.5 "/>
    <polygon points="56.3,15.5 55.7,13.7 60,11.9 60.9,14.5 56.3,15.5 "/>
    <polygon points="55.4,12.9 54.8,12 57.6,7.7 58.2,8.3 58.7,8.9 59.2,10.6 55.4,12.9 "/>
    <polygon points="54.3,11.7 53.4,11.7 52.3,7.1 53.9,6.8 55.1,6.8 56.1,7.2 54.3,11.7 "/>
    <polygon points="52.8,11.8 52.1,12.8 48.8,9.9 49.9,8.5 51.2,7.7 52.8,11.8 "/>
    <polygon points="54.7,21.3 53,21.2 52.1,19.1 52.6,17.2 54.8,17.3 55.5,19 54.7,21.3 "/>
    <polygon points="55.4,16 54.4,13.4 53.4,13.1 52.2,15.2 52,16.6 54.9,16.4 55.4,16 "/>
    <polygon points="55.2,22.8 52.8,22.8 52.9,23.5 53.7,24.8 54.3,25 55.1,23.4 55.2,22.8 "/>
    <polygon points="51.6,13.7 47.7,11.2 46.6,14 51.1,15.4 51.6,13.7 "/>
    <polygon points="50.8,16.5 46.3,15.8 46.3,18.9 50.4,18.4 50.8,16.5 "/>
    <polygon points="50.5,19.6 46.2,20.1 46.5,22.8 50.6,21.8 50.5,19.6 "/>
    <polygon points="51.5,24.3 51.1,22.8 46.8,24.2 47.6,26.5 51.5,24.3 "/>
    <polygon points="34.6,71.7 34.7,73.7 31.1,74.7 30.7,72.2 34.6,71.7 "/>
    <polygon points="37.5,71.2 38.2,72.8 42,72.1 40.9,69.4 37.5,71.2 "/>
    <polygon points="34.9,74.6 34.9,76.4 31.8,78.8 31.1,76 34.9,74.6 "/>
    <polygon points="35.6,74.8 36.9,76.8 37.6,74.4 35.6,74.8 "/>
    <polygon points="38.5,74 38.8,75.5 42.8,76.3 42.8,74.7 42.2,73.1 38.5,74 "/>
    <polygon points="35.2,77.3 36.2,78.4 34.9,82.6 33.6,81.9 32.5,80.5 35.2,77.3 "/>
    <polygon points="36.8,78.6 38,78.2 40.4,82.3 38.7,83.3 37,83.4 36.8,78.6 "/>
    <polygon points="38.5,77.7 41.9,81 43.1,77.8 38.9,76.3 38.5,77.7 "/>
    <polygon points="32.4,62 32,60.5 27.7,62.1 28.3,64.7 32.4,62 "/>
    <polygon points="31.8,59.5 31.8,57.4 27.1,58.1 27.5,60.9 31.8,59.5 "/>
    <polygon points="31.7,56.1 31.8,54.3 26.9,54 26.9,55.4 27,56.9 31.7,56.1 "/>
    <polygon points="32.1,53.1 32.5,51.4 28.1,49.9 27.4,52.5 32.1,53.1 "/>
    <polygon points="32.7,50.5 33.2,49.5 30.1,45.6 29.5,46.2 29.1,46.9 28.7,48.5 32.7,50.5 "/>
    <polygon points="33.7,49.2 34.6,49.1 35.2,44.5 33.7,44.3 32.4,44.5 31.5,44.9 33.7,49.2 "/>
    <polygon points="35.2,49.2 36,50.1 38.9,47 37.7,45.6 36.4,45 35.2,49.2 "/>
    <polygon points="34.1,58.8 35.7,58.5 36.5,56.3 35.8,54.5 33.7,54.8 33.2,56.5 34.1,58.8 "/>
    <polygon points="33,53.6 33.7,50.9 34.7,50.5 36.1,52.5 36.4,53.8 33.5,54 33,53.6 "/>
    <polygon points="33.7,60.2 36.1,60 36.1,60.7 35.4,62.1 34.8,62.3 33.8,60.8 33.7,60.2 "/>
    <polygon points="36.5,51 40.1,48.1 41.5,50.9 37.2,52.6 36.5,51 "/>
    <polygon points="37.5,53.6 41.9,52.6 42.2,55.6 38.1,55.5 37.5,53.6 "/>
    <polygon points="38.1,56.7 42.4,56.8 42.4,59.5 38.2,58.9 38.1,56.7 "/>
    <polygon points="37.5,61.4 37.8,59.9 42.2,60.9 41.6,63.2 37.5,61.4 "/>
</svg>
