<?xml version="1.0" encoding="UTF-8"?>
<svg fill="#706c6a" width="65px" height="65px" viewBox="81 87 37 65" version="1.1" xmlns="http://www.w3.org/2000/svg" xmlns:xlink="http://www.w3.org/1999/xlink">
    <path transform="translate(99.763382, 120.000000) rotate(-315.000000) translate(-99.763382, -120.000000)" d="M108.421118,108.474339 C100.233639,108.598462 99.5036339,125.981789 91.3161545,126.105912 C88.0411611,126.155562 84.3131739,122.538919 84.263525,119.263926 C84.1890511,114.351438 94.6009784,113.597471 94.5265045,108.684982 C94.4272061,102.134999 86.97123,94.9017145 80.4212461,95.001011 C78.78375,95.0258351 76.9754275,96.8898292 77,98.5273261 C77.0747286,103.439813 87.5047211,103.877817 87.5791961,108.790304 C87.6536711,113.702792 77.2417444,114.456759 77.3162178,119.369247 C77.4155155,125.919231 84.8714917,133.152517 91.4214761,133.053218 C99.6089556,132.929096 100.338959,115.545766 108.52644,115.421647 C111.801432,115.371997 115.529419,118.98864 115.579068,122.263632 C115.651887,127.066954 105.471338,127.804166 105.544157,132.607488 C105.634077,138.538862 112.385877,145.089002 118.317251,144.999085 C119.954747,144.974262 121.763068,143.110266 121.738244,141.472769 C121.673149,137.178891 112.556559,136.796044 112.491463,132.502166 C112.418645,127.698844 122.599194,126.961631 122.526765,122.158311 C122.427078,115.608326 114.971103,108.375041 108.421118,108.474339 Z"></path>
</svg>
