<?xml version="1.0" encoding="UTF-8"?>
<svg fill="#706c6a" x="0px" y="0px" viewBox="0 5 100 100" enable-background="new 0 0 100 100" xmlns="http://www.w3.org/2000/svg" xmlns:xlink="http://www.w3.org/1999/xlink" version="1.1" xml:space="preserve">
    <rect x="49.32" y="0" width="1.359" height="33.5"/>
    <path d="M50,47.386c2.326,0,4.612,0.079,6.854,0.229V35.27H43.146v12.345C45.388,47.465,47.675,47.386,50,47.386z"/>
    <path d="M95,62.479c-8.072-8.041-25.189-13.589-45.001-13.589c-19.81,0-36.927,5.548-44.999,13.589H95z"/>
    <path d="M33.462,63.979c-1.578,2.39-2.77,5.132-3.458,8.105h39.992c-0.688-2.974-1.88-5.716-3.457-8.105H33.462z"/>
    <path d="M62.088,80.618c0.084-1.109,0.13-2.243,0.13-3.398c0-1.236-0.051-2.45-0.148-3.635H37.931   c-0.097,1.185-0.148,2.398-0.148,3.635c0,1.155,0.046,2.289,0.129,3.398H62.088z"/>
</svg>
