<?xml version="1.0" encoding="utf-8"?>
<svg fill="#706c6a" viewBox="0 0 57 33" x="0px" y="0px" version="1.1" xmlns="http://www.w3.org/2000/svg" xmlns:xlink="http://www.w3.org/1999/xlink">
	<path d="M52,5c-0.6-0.7-1.4-1-2.2-1H7.2C6.4,4,5.6,4.3,5,5C4.3,5.7,4,6.4,4,7.3v18.4c0,0.9,0.3,1.6,1,2.3
		c0.6,0.7,1.4,1,2.2,1h42.7c0.6,0,1.4-0.2,2.1-1c0.7-0.7,1-1.4,1-2.3V7.3C53,6.4,52.7,5.7,52,5z M51.5,25.7c0,0.4-0.2,0.9-0.5,1.2
		c-0.3,0.3-0.6,0.6-1.2,0.6H7.2c-0.4,0-0.9-0.2-1.2-0.6c-0.3-0.3-0.5-0.7-0.5-1.2V7.3c0-0.4,0.2-0.9,0.5-1.2
		c0.3-0.3,0.6-0.6,1.2-0.6h42.6c0.4,0,0.9,0.2,1.2,0.6c0.3,0.3,0.5,0.7,0.5,1.2V25.7z"/>
	<path d="M54.1,3c-1.2-1.3-2.7-2-4.5-2H7.4C5.7,1,4,1.7,3,3C1.7,4.2,1,5.7,1,7.5v18C1,27.3,1.7,29,2.9,30
		c1.2,1.3,2.7,2,4.5,2h42.2c1.7,0,3.4-0.7,4.4-2c1.3-1.2,2-2.8,2-4.5v-18C56,5.7,55.3,4,54.1,3z M54.6,25.5c0,1.4-0.8,2.5-1.5,3.5
		c-0.8,1-2.1,1.6-3.5,1.6H7.4C6,30.5,4.7,30,4,29c-0.9-0.8-1.5-2.1-1.5-3.5v-18C2.4,6.1,3,4.8,4,4C4.7,3,6,2.5,7.4,2.5h42.1
		C51,2.5,52.3,3,53,4c0.9,0.8,1.5,2.1,1.5,3.5V25.5z"/>
	<g opacity="0.35">
		<path d="M52.2,11.3c-0.4-0.8-1.3-1.1-2.1-1.2c-0.5-0.1-1.4-0.2-1.5-0.8c-0.1-1.6,3.2-1.1,3.6-2.4
			c-0.5-1-1.9-1.2-3.1-1.6c-1.3-0.4-2.5-0.7-3.8-0.8c-0.5,0-2.6-0.2-2.8,0.5c-0.1,0.4,0.3,0.5,0.4,0.8c0.1,0.8-1.4,0.8-2,0.8
			c-1.9-0.1-3.7-1-5.6-0.6c-0.7,0.1-2,1-1.9,1.7c0,0.7,1.5,1.5,2.5,1.7c2.3,0.4,5.5-0.8,5.7,1.3c0.1,1-1.1,1.3-0.9,2.2
			c1.1,1.2,2.7,0.6,4.1,0.4c1.1-0.2,2-0.3,3.1-0.3c0.8,0,1.7,0,2.4,0C51.1,13.1,53,12.8,52.2,11.3z"/>
		<path d="M37.6,13.9c0.1-1,1.4-0.6,1.8-1.3c1.5-2.5-9.1-3-10.3-2.9c-0.3,0-0.5,0.3-0.8,0.4c-0.2,1.3,0.8,1.3,0.7,2.3
			c-0.7,1.2-2.6,0.3-4.4,0.1c-3.1-0.2-7.2,0.6-7.3,2.3c-0.1,1.3,1.4,1.5,1.6,2.2c-2.1,0.6-5.2,0.6-6,3c-0.2,0.4,0,1-0.2,1.4
			c-0.4,1.3-3.6,0.8-3.3,2.9c0.6,0,1.2-0.5,1.6-0.8c0.7-0.4,1.4-0.7,2.2-0.8c0.6-0.1,1.7-0.3,1.7-1.2c1.2-0.3,2.2,0,3.4-0.2
			c0.5-0.1,1.4-0.2,0.9-0.8c-0.2-0.3-0.7-0.2-0.8-0.6c1.4-0.2,3.2-0.4,5.3-0.3c2.2,0.2,4.2,1.3,5.8,1.2c0.8-0.1,2.3-0.5,2.1-1.9
			c-0.7-0.7-2.7-0.2-3.6-0.8c3.8-1.3,9,0.4,13.1-0.7C40.8,15.1,37.4,15.8,37.6,13.9z"/>
	</g>
</svg>
