<?xml version="1.0" encoding="UTF-8"?>
<svg width="57px" height="50px" viewBox="72 95 57 50" version="1.1" xmlns="http://www.w3.org/2000/svg" xmlns:xlink="http://www.w3.org/1999/xlink">
    <path fill="#606060" fill-rule="nonzero" d="M87.8872564,95.2363572 C92.6132615,96.4265287 94.92001,101.671632 95.1960664,102.323683 C96.7950602,106.100545 95.4109313,108.094092 97.4108604,110.296933 C99.8911734,113.028864 104.391493,112.574714 104.941155,112.511727 C107.650125,112.201293 107.94983,111.033354 112.692928,108.968058 C116.224091,107.430481 118.251309,106.547766 120.887657,106.753264 C123.195203,106.933133 127.450435,108.062133 128.417951,111.182846 C129.46204,114.550564 126.049934,118.21448 123.545407,119.820544 C120.13103,122.01003 116.265726,121.745779 114.021803,121.59235 C108.384236,121.206937 106.641483,118.909703 103.833732,120.263474 C101.288574,121.490649 100.329241,124.531348 100.068585,125.357497 C99.2957339,127.807092 99.7197383,129.986909 100.068585,131.780394 C100.692697,134.989029 101.565814,135.039869 101.618957,137.095895 C101.679017,139.419942 100.64881,142.658632 97.8538102,144.18322 C96.1483468,145.08856 94.1445629,145.248863 92.3168573,144.626177 C91.7980422,144.437044 89.4079789,143.565657 88.7731881,141.52547 C88.3337186,140.113029 89.0618662,139.189181 91.4309384,133.995176 C93.0689038,130.404082 93.3544297,129.456566 93.4242479,128.236719 C93.4672916,127.484595 93.6601554,124.114523 91.8738753,123.142696 C89.82124,122.025946 86.4996215,124.807494 86.1154186,125.136006 C83.0858941,127.726408 83.7783574,130.122622 81.2428743,131.558903 C79.2972725,132.661032 76.3070928,132.712966 74.5984986,131.115947 C72.3272672,128.99303 73.0122295,124.602793 75.0414549,122.478249 C76.3203514,121.139293 78.2564901,120.847347 82.1287803,120.263455 C86.8793856,119.547125 88.9793105,120.040986 90.98795,118.270146 C91.3284144,117.970049 92.8054948,116.667826 92.5383226,115.390962 C92.169707,113.629269 88.6591746,112.768279 86.115425,112.733212 C84.4710938,112.710543 83.43964,113.035878 82.4829317,113.372502 L82.0083149,113.540195 C81.0615737,113.871229 80.0998895,114.157431 78.5851304,114.062087 C77.8174773,114.013768 74.0762675,113.778285 72.6051956,111.404337 C70.3084698,107.698001 75.2569116,101.541356 75.7059021,100.994814 C76.8699038,99.5778313 82.0497692,93.7662695 87.8872564,95.2363572 Z M104.793496,130.303893 C105.579207,129.362109 108.228157,130.228336 109.813693,131.189825 C110.642994,131.692718 112.577222,132.865642 113.062058,135.17645 C113.143546,135.564834 113.674423,138.322413 111.880828,139.606032 C110.553698,140.422375 108.866648,140.364199 107.598905,139.458373 C106.786188,138.882542 106.760327,138.316894 105.384111,133.699916 C104.64964,131.235841 104.452884,130.712168 104.793496,130.303893 Z M103.05861,100.773329 C103.773769,102.278079 100.297661,106.055732 99.0719592,105.535135 C98.2609599,105.190675 98.2004954,102.864801 99.0719592,101.327031 C99.3269765,100.793779 99.7568637,100.363901 100.290121,100.108895 C101.300198,99.6830959 102.711713,100.043464 103.05861,100.773329 Z M115.904399,97.8941075 C116.485834,99.1712413 114.294971,101.092076 114.021829,101.327038 C111.967173,103.094404 108.780598,103.787948 108.152633,102.877384 C107.66339,102.168015 108.80458,100.5975 109.481508,99.6659388 C110.269367,98.5816945 111.194174,97.3089801 112.803692,97.0081886 C113.87051,96.8088209 115.492302,96.9889408 115.904399,97.8941075 Z"></path>
</svg>
