<svg width="940px" height="64px" viewBox="0 0 940 64" version="1.1" xmlns="http://www.w3.org/2000/svg" xmlns:xlink="http://www.w3.org/1999/xlink">
    <path fill="#e9e3dd" d="M0,20.5859985 C66.8945516,11.9422201 146.00883,0 237.342834,0 C374.343842,0 657.044434,29.7130737 769.053711,29.7130737 C843.726562,29.7130737 900.708659,26.6707153 940,20.5859985 L940,64 L0,64 L0,20.5859985 Z"/>
    <path fill="#f5f0ea" d="M0,28.9521506 C79.1650981,12.3173835 148.265116,4 207.300054,4 C266.334993,4 379.38391,12.3173835 546.446806,28.9521506 C657.339921,43.6875036 730.058073,51.0551801 764.601261,51.0551801 C799.14445,51.0551801 857.610696,43.6875036 940,28.9521506 L940,64 L0,64 L0,28.9521506 Z"/>
</svg>
