<?xml version="1.0" encoding="UTF-8"?>
<svg fill="#a29687" xmlns="http://www.w3.org/2000/svg" viewBox="0 0 180 60">
  <path d="m107.22,41.7c.01,1.47-.54,2.87-1.38,3.97-.43.56-.86,1.01-1.45,1.46-.59.44-1.26.77-1.95.96-1.39.38-2.76.27-3.99-.03-2.47-.61-4.55-1.84-6.44-3.23-.47-.35-.93-.71-1.37-1.09-.44-.36-.85-.7-1.28-1.03-.87-.65-1.77-1.26-2.71-1.79-.48-.27-.97-.53-1.47-.76,0,.07-.01.15-.01.22-.17,1.24-.26,2.5-.51,3.73-.86,4.94-2.43,9.71-4.4,14.27l-.68-.28c1.79-4.59,3.14-9.35,3.79-14.19.21-1.2.25-2.43.36-3.64,0-.24.01-.47.02-.71-1.01-.38-2.05-.66-3.11-.82-1.05-.16-2.12-.21-3.14-.07-1.02.14-2.03.48-2.72,1.11-.68.61-1.05,1.62-.85,2.52.17.92,1.01,1.53,2.05,1.55.21,0,.38.18.38.39s-.17.38-.38.38c-.62.02-1.28-.09-1.86-.45-.58-.36-1.01-.96-1.2-1.6-.37-1.31.05-2.72.97-3.69.95-.96,2.17-1.41,3.35-1.66,1.2-.24,2.42-.27,3.61-.15,1,.11,1.98.31,2.94.58,0-.34-.01-.68-.04-1.02-.05-2.43-.37-4.84-.87-7.21-.49-2.38-1.19-4.7-2.04-6.98-.41-1.14-.88-2.27-1.36-3.39l-.74-1.69-.73-1.79c-.88-2.43-1.5-5.08-1.1-7.92.23-1.4.75-2.86,1.78-4.05.51-.6,1.14-1.12,1.91-1.5.77-.35,1.64-.68,2.92-.31l-1.01,2.82c-.07,0-.4,0-.67.15-.35.15-.72.41-1.02.74-.61.66-1.03,1.59-1.24,2.62-.38,2.07,0,4.42.73,6.65l.61,1.67.68,1.74c.45,1.17.88,2.35,1.27,3.55.79,2.39,1.43,4.85,1.84,7.34.42,2.49.67,5.01.63,7.54.01.52,0,1.03-.04,1.55.78.29,1.55.63,2.29,1.01,1.05.53,2.06,1.14,3.02,1.81.48.32.96.69,1.41,1.02.43.33.88.65,1.32.95,1.8,1.19,3.72,2.24,5.66,2.65.97.21,1.92.22,2.71-.03.39-.12.74-.31,1.06-.55.3-.25.65-.62.89-.96.5-.72.78-1.54.75-2.34-.02-.79-.35-1.55-.85-2.02-.49-.47-1.2-.63-1.86-.55-.57.06-1.07.29-1.56.79l-.36.36c-.34.34-.89.34-1.23,0-.14-.13-.22-.3-.25-.48-.14-.9.19-1.73.73-2.39.56-.65,1.38-1.09,2.19-1.22,1.58-.28,3.26.28,4.37,1.4,1.12,1.12,1.65,2.64,1.63,4.09Z"/>
  <path d="m142.33,32.01l.19-.25c1.1-1.37,2.27-2.35,3.49-2.95,1.22-.59,2.69-.89,4.42-.89s3.84.35,6.35,1.04c2.26.63,3.71.94,5,.94,1.41,0,2.22-.08,3.21-.59l1.53-1.13c.37-.28.56-.42.88-.41.25,0,.6.11.4.39-1.29,1.5-1.68,1.88-3,2.54-1.34.64-3.1.85-4.92.85-1.51,0-3.69-.39-6.55-1.16-2.18-.55-3.87-.83-5.09-.83-.42,0-.77-.04-1.34.11-.59.14-.93.35-1.27.54l-1.61,1.32c-.33.26-.52.65-.84.67-.27.02-.88,0-.85-.2Z"/>
  <path d="m12.15,32.01l.19-.25c1.1-1.37,2.27-2.35,3.49-2.95,1.22-.59,2.69-.89,4.42-.89s3.84.35,6.35,1.04c2.26.63,3.71.94,5,.94,1.41,0,2.22-.08,3.21-.59l1.53-1.13c.37-.28.56-.42.88-.41.25,0,.6.11.4.39-1.29,1.5-1.68,1.88-3,2.54-1.34.64-3.1.85-4.92.85-1.51,0-3.69-.39-6.55-1.16-2.18-.55-3.87-.83-5.09-.83-.42,0-.77-.04-1.34.11-.59.14-.93.35-1.27.54l-1.61,1.32c-.33.26-.52.65-.84.67-.27.02-.88,0-.85-.2Z"/>
</svg>
